<?xml version="1.0" encoding="utf-8"?>
<!-- Generator: Adobe Illustrator 17.1.0, SVG Export Plug-In . SVG Version: 6.00 Build 0)  -->
<!DOCTYPE svg PUBLIC "-//W3C//DTD SVG 1.1//EN" "http://www.w3.org/Graphics/SVG/1.1/DTD/svg11.dtd">
<svg version="1.1" id="Layer_1" xmlns="http://www.w3.org/2000/svg" xmlns:xlink="http://www.w3.org/1999/xlink" x="0px" y="0px"
	 viewBox="120.5 0 479.5 600" enable-background="new 120.5 0 479.5 600" xml:space="preserve">
<g id="Background">
	<rect x="120.4" fill="#BAD6D8" width="480.5" height="600.6"/>
</g>
<g id="Objects">
	<path fill="#2E627C" d="M131.5,3.6c0.2,0.2,0.2,0.2,0.3,0.3c0.1,0.2,0.2,0.4,0.4,0.7c0.6,1.3-0.3,17.6-0.5,19.9
		c-0.1,2,2.9,1.9,2.8,0.2c-0.4-3.3-1.8-18.6-1.3-19.9c0.2-0.6,0-0.7,0.8-1.3c1.3-1.4,3.3-10.8-1.6-10.7
		C127.7-7.1,130.6,3.3,131.5,3.6z"/>
	<path fill="#5CB9D6" d="M142.2,150.5C142.2,150.4,142.3,150.4,142.2,150.5c0.1,0.1,0.2,3.6,0.2,3.6s0,0,0.1,0
		c0-0.1,0.2-3.5,0.2-3.6c0-0.1,0.1-0.1,0.1,0c0,0.1,0.1,3.6,0.1,3.6s0,0.1,0.1,0c0-0.1,0.2-3.5,0.2-3.6c0-0.1,0.1-0.1,0.1,0
		c0,0.1,0.1,3.6,0.1,3.6s0,0.1,0.1,0c0-0.1,0.2-3.6,0.2-3.6c0.1-0.1,0.1,0,0.1,0s0.1,4,0,4.4c-0.1,0.4-0.7,0.8-0.7,1
		c-0.3,0.6,0.1,8,0.2,9.7c0.1,1.3-1.5,1-1.4,0.1c0.2-1.6,0.6-9.7,0.6-9.7s-0.7-0.7-0.7-1.1C142,154.6,142.2,150.6,142.2,150.5z"/>
	<path fill="#BAD6D8" d="M144.7,22.3c-0.1-0.5-0.5-6.3-0.7-11.1c0.2-4.8-0.2-10.1-0.1-11c0-0.4-0.1-0.7-0.3-0.7l-0.1-0.1l0,0
		c-0.2-0.2-0.7,0-1.1,0.8c-1,2-1.2,7.8,0.2,10.8c0,0.1,0.1,0.1,0.1,0.2c0.4,1.4,0.1,9.7,0,11.1C142.4,23.5,144.7,23.6,144.7,22.3z"
		/>
	<path fill="#DFE5E5" d="M139,38.2c0.2,0.2,0.2,0.2,0.3,0.3c0.1,0.2,0.2,0.4,0.4,0.7c0.6,1.3-0.3,17.6-0.5,19.9
		c-0.1,2,2.9,1.9,2.8,0.2c-0.4-3.3-1.8-18.6-1.3-19.9c0.2-0.6,0-0.7,0.8-1.3c1.3-1.4,3.3-10.8-1.6-10.7
		C135.1,27.5,138.1,37.8,139,38.2z"/>
	<path fill="#BAD6D8" d="M125.5,48c-0.1-1-0.9-10.9-1.2-19.1c0.4-8.3-0.3-17.5-0.2-18.9c0-0.7-0.2-1.1-0.5-1.2
		c-0.1-0.1-0.1-0.1-0.1-0.1l0,0c-0.4-0.3-1.2,0.1-1.9,1.3c-1.6,3.4-2.1,13.5,0.3,18.6c0.1,0.1,0.1,0.2,0.1,0.3
		c0.6,2.4,0.2,16.8,0,19C121.8,50.1,125.6,50.2,125.5,48z"/>
	<path fill="#5CB9D6" d="M484,18c0-0.1,0.2-0.1,0.2,0s0.2,5.3,0.2,5.3s0.1,0.1,0.1,0s0.4-5.2,0.4-5.3c0-0.1,0.1-0.1,0.2,0
		c0,0.1,0.2,5.3,0.2,5.3s0,0.1,0.1,0s0.4-5.2,0.4-5.3c0-0.1,0.2-0.1,0.2,0c0,0.2,0.2,5.3,0.2,5.3s0.1,0.1,0.1,0s0.4-5.3,0.4-5.3
		c0.1-0.1,0.1,0,0.1,0s0.2,5.9,0.1,6.5s-1,1.2-1,1.4c-0.4,0.9,0.2,11.8,0.4,14.2c0.1,1.9-2.2,1.5-2,0.1c0.3-2.3,0.9-14.2,0.9-14.2
		s-1-1-1.1-1.6C483.6,24,484,18,484,18z"/>
	<path fill="#1C3A4D" d="M130.9,51.7c0,0.1-0.2,0.1-0.2,0s-0.2-5.3-0.2-5.3s-0.1-0.1-0.1,0s-0.4,5.2-0.4,5.3
		c-0.1,0.1-0.1,0.2-0.1,0.1c0-0.1-0.2-5.3-0.2-5.3s0-0.1-0.1,0c-0.1,0.1-0.4,5.2-0.4,5.3s-0.2,0.1-0.2,0c0-0.2-0.2-5.3-0.2-5.3
		s-0.1-0.1-0.1,0s-0.1,5.2-0.1,5.2c-0.1,0.1-0.1,0-0.1,0s-0.2-5.9-0.1-6.5c0.1-0.6,1-1.2,1-1.4c0.4-0.9-0.2-11.8-0.4-14.2
		c-0.1-1.9,2.2-1.5,2-0.1c-0.3,2.3-0.9,14.2-0.9,14.2s1,1,1.1,1.6C131.3,45.6,130.9,51.6,130.9,51.7z"/>
	<path fill="#075280" d="M398.4,12.3c0.2,0.1,0.1,0.1,0.2,0.2c0.1,0.1,0.2,0.3,0.2,0.5c0.4,0.8-0.2,11.8-0.3,13.4
		c-0.1,1.3,2,1.3,1.9,0.1c-0.2-2.2-1.2-12.5-0.8-13.4c0.1-0.4,0-0.5,0.5-0.8c0.9-0.9,2.2-7.2-1-7.2C395.8,5.2,397.7,12.1,398.4,12.3
		z"/>
	<path fill="#075280" d="M272.6,20c0.2,0.1,0.1,0.1,0.2,0.2s0.2,0.3,0.2,0.5c0.4,0.8-0.2,11.8-0.3,13.4c-0.1,1.3,2,1.3,1.9,0.1
		c-0.2-2.2-1.2-12.5-0.8-13.4c0.1-0.4,0-0.5,0.5-0.8c0.9-0.9,2.2-7.2-1-7.2C270,12.9,272,19.8,272.6,20z"/>
	<path fill="#5CB9D6" d="M141.1,10.3c0.1,0.1,0.1,0.1,0.1,0.1c0.1,0.1,0.1,0.1,0.1,0.2c0.2,0.5-0.1,6.3-0.2,7.1c0,0.7,1,0.7,1,0.1
		c-0.1-1.2-0.7-6.6-0.4-7.1c0.1-0.2,0-0.2,0.3-0.5c0.5-0.5,1.2-3.8-0.5-3.8C139.7,6.5,140.8,10.2,141.1,10.3z"/>
	<path fill="#1C3A4D" d="M291.2,2.2c0-0.1,0.2-0.1,0.2,0s0.2,6.8,0.2,6.8s0.1,0.1,0.1,0s0.5-6.8,0.5-6.8c0-0.1,0.2-0.1,0.2,0
		s0.2,6.8,0.2,6.8s0.1,0.1,0.1,0c0.1-0.1,0.5-6.7,0.5-6.8c0-0.1,0.2-0.1,0.2,0c0,0.2,0.2,6.8,0.2,6.8s0.1,0.1,0.1,0
		c0.1-0.1,0.5-6.8,0.5-6.8c0.1-0.1,0.2,0,0.2,0s0.2,7.6,0.1,8.4c-0.1,0.8-1.3,1.6-1.3,1.8c-0.5,1.2,0.2,15.3,0.4,18.3
		c0.2,2.4-2.8,1.9-2.6,0.2c0.4-3,1.1-18.4,1.1-18.4s-1.3-1.3-1.4-2.1C290.7,10,291.2,2.2,291.2,2.2z"/>
	<path fill="#D9F7FC" d="M180.6,70.5c0,0.2-0.2,0.1-0.2,0s-0.2-8.4-0.2-8.4s-0.1-0.1-0.1,0c-0.1,0.1-0.6,8.3-0.6,8.4s-0.2,0.2-0.2,0
		c0-0.1-0.2-8.4-0.2-8.4s-0.1-0.1-0.1,0c-0.1,0.1-0.6,8.3-0.6,8.3c0,0.1-0.2,0.1-0.2,0c0-0.3-0.3-8.4-0.3-8.4s-0.1-0.1-0.1,0
		s-0.6,8.3-0.6,8.4c-0.1,0.2-0.2,0-0.2,0s-0.2-9.4-0.1-10.3c0.2-1,1.5-1.9,1.7-2.2c0.7-1.4-0.2-18.7-0.5-22.5
		c-0.2-2.9,3.5-2.4,3.2-0.2c-0.5,3.7-1.4,22.6-1.4,22.6s1.6,1.6,1.7,2.6C181.3,60.9,180.7,70.5,180.6,70.5z"/>
	<path fill="#2E627C" d="M175.4-1.7c0.3,0.3,0.2,0.2,0.4,0.4c0.2,0.2,0.3,0.5,0.4,0.8c0.7,1.6-0.4,21.6-0.6,24.5
		c-0.1,2.4,3.6,2.3,3.5,0.2c-0.4-4.1-2.2-22.9-1.6-24.4c0.2-0.7,0-0.9,1-1.6c1.6-1.7,4.1-13.2-1.9-13.2
		C170.7-14.9,174.3-2.1,175.4-1.7z"/>
	<path fill="#2E627C" d="M188.6,20.9c-0.1-0.7-0.7-7.7-0.8-13.6c0.3-5.9-0.2-12.4-0.2-13.5c0-0.5-0.1-0.8-0.4-0.8l-0.1,0l0,0
		c-0.3-0.2-0.8,0-1.4,1c-1.3,2.3-1.6,9.5,0.2,13.2c0,0.1,0.1,0.1,0.1,0.2c0.4,1.7,0.1,12,0,13.6C185.9,22.6,188.6,22.5,188.6,20.9z"
		/>
	<path fill="#5CB9D6" d="M154.1,41.5c0,0.1-0.2,0.1-0.2,0s-0.2-6.5-0.2-6.5s-0.1-0.1-0.1,0c-0.1,0.1-0.5,6.4-0.5,6.5s-0.2,0.1-0.2,0
		s-0.2-6.5-0.2-6.5s0-0.1-0.1,0c-0.2,0.1-0.6,6.5-0.6,6.5s-0.2,0.1-0.2,0c0-0.2-0.2-6.5-0.2-6.5s-0.1-0.1-0.1,0
		c-0.1,0.1-0.5,6.5-0.5,6.5c-0.1,0.1-0.2,0-0.2,0s-0.2-7.2-0.1-8c0.1-0.8,1.2-1.5,1.3-1.7c0.5-1.1-0.2-14.5-0.4-17.5
		c-0.2-2.3,2.7-1.9,2.5-0.1c-0.4,2.9-1.1,17.5-1.1,17.5s1.2,1.3,1.3,2C154.6,34.1,154.1,41.4,154.1,41.5z"/>
	<path fill="#075280" d="M152.3-11.9c0.2,0.2,0.2,0.2,0.2,0.2c0.1,0.2,0.2,0.4,0.3,0.5c0.5,1.2-0.2,14.6-0.3,16.5
		c-0.1,1.6,2.4,1.6,2.3,0.1c-0.3-2.8-1.4-15.4-1-16.5c0.2-0.5,0-0.6,0.7-1c1.1-1.1,2.8-8.9-1.3-8.8
		C149.1-20.7,151.6-12.1,152.3-11.9z"/>
	<path fill="#DFE5E5" d="M150.4,151.5c0.2,0.2,0.2,0.2,0.2,0.2c0.1,0.2,0.2,0.4,0.3,0.5c0.5,1.1-0.2,14.5-0.4,16.5
		c-0.1,1.6,2.4,1.6,2.3,0.1c-0.3-2.8-1.4-15.4-1-16.5c0.2-0.5,0-0.6,0.7-1c1.1-1.1,2.8-8.9-1.3-8.8
		C147.2,142.7,149.6,151.3,150.4,151.5z"/>
	<path fill="#5CB9D6" d="M189.2-19.3c0.1,0.1,0.1,0.1,0.1,0.1c0.1,0.1,0.1,0.2,0.2,0.3c0.2,0.5-0.1,7.7-0.2,8.7
		c0,0.8,1.3,0.8,1.3,0.1c-0.2-1.4-0.8-8.2-0.5-8.7c0.1-0.2,0-0.3,0.4-0.5c0.6-0.6,1.4-4.7-0.7-4.7C187.5-24,188.8-19.4,189.2-19.3z"
		/>
	<path fill="#1C3A4D" d="M163.4-36.6c0-0.2,0.2-0.1,0.2,0s0.2,8.4,0.2,8.4s0.1,0.1,0.1,0c0.1-0.1,0.6-8.3,0.6-8.4s0.2-0.2,0.2,0
		c0,0.1,0.2,8.4,0.2,8.4s0.1,0.1,0.1,0s0.6-8.3,0.6-8.3s0.2-0.1,0.2,0c0,0.3,0.3,8.4,0.3,8.4s0.1,0.1,0.1,0c0.1-0.1,0.6-8.3,0.6-8.4
		c0.1-0.2,0.2,0,0.2,0s0.2,9.4,0.1,10.3c-0.2,1-1.5,1.9-1.7,2.2c-0.5,1.4,0.4,18.7,0.7,22.4c0.2,2.9-3.5,2.4-3.2,0.2
		c0.7-3.7,1.7-22.6,1.7-22.6s-1.6-1.6-1.7-2.6C162.8-27,163.4-36.5,163.4-36.6z"/>
	<path fill="#D9F7FC" d="M210.4,97.7c0,0.1-0.2,0.1-0.2,0s-0.2-6.8-0.2-6.8s-0.1-0.1-0.1,0c-0.1,0.1-0.5,6.8-0.5,6.8
		c0,0.1-0.2,0.1-0.2,0s-0.2-6.8-0.2-6.8s-0.1-0.1-0.1,0c-0.1,0.1-0.5,6.7-0.5,6.8s-0.2,0.1-0.2,0c0-0.2-0.2-6.8-0.2-6.8
		s-0.1-0.1-0.1,0c-0.1,0.1-0.5,6.8-0.5,6.8c-0.1,0.1-0.2,0-0.2,0s-0.2-7.6-0.1-8.4s1.3-1.6,1.3-1.8c0.5-1.2-0.2-15.3-0.4-18.3
		c-0.2-2.4,2.8-1.9,2.6-0.2c-0.4,3-1.1,18.4-1.1,18.4s1.3,1.3,1.4,2.1C210.9,89.9,210.4,97.6,210.4,97.7z"/>
	<path fill="#DFE5E5" d="M216.6,15.6c0.2,0.2,0.2,0.2,0.3,0.3c0.1,0.2,0.2,0.4,0.4,0.7c0.6,1.3-0.3,17.6-0.5,19.9
		c-0.1,2,2.9,1.9,2.8,0.2c-0.4-3.3-1.8-18.6-1.3-19.9c0.2-0.6,0-0.7,0.8-1.3c1.3-1.4,3.3-10.8-1.6-10.7
		C212.8,4.9,215.7,15.3,216.6,15.6z"/>
	<path fill="#2E6080" d="M229.7,34.2c-0.1-0.5-0.5-6.3-0.7-11.1c0.2-4.8-0.2-10.1-0.1-11c0-0.4-0.1-0.7-0.3-0.7l-0.1-0.1l0,0
		c-0.2-0.2-0.7,0-1.1,0.8c-1,1.9-1.3,7.7,0.1,10.8c0,0.1,0.1,0.1,0.1,0.2c0.4,1.4,0.1,9.7,0,11.1C227.4,35.5,229.8,35.6,229.7,34.2z
		"/>
	<path fill="#CCDADD" d="M226,48.2c0.2,0.2,0.2,0.2,0.3,0.3c0.1,0.2,0.2,0.4,0.4,0.7c0.6,1.3-0.3,17.6-0.5,19.9
		c-0.1,2,2.9,1.9,2.8,0.2c-0.4-3.3-1.8-18.6-1.3-19.9c0.2-0.6,0-0.7,0.8-1.3c1.3-1.4,3.3-10.8-1.6-10.7
		C222.2,37.5,225,47.9,226,48.2z"/>
	<path fill="#5CB9D6" d="M197.2,27.4c0-0.1,0.2-0.1,0.2,0s0.2,5.3,0.2,5.3s0.1,0.1,0.1,0s0.4-5.2,0.4-5.3c0-0.1,0.1-0.1,0.2,0
		c0,0.1,0.2,5.3,0.2,5.3s0,0.1,0.1,0s0.4-5.2,0.4-5.3c0-0.1,0.2-0.1,0.2,0c0,0.2,0.2,5.3,0.2,5.3s0.1,0.1,0.1,0s0.4-5.3,0.4-5.3
		c0.1-0.1,0.1,0,0.1,0s0.2,5.9,0.1,6.5s-1,1.2-1,1.4c-0.4,0.9,0.2,11.8,0.4,14.2c0.1,1.9-2.2,1.5-2,0.1c0.3-2.3,0.9-14.2,0.9-14.2
		s-1-1-1.1-1.6C196.8,33.5,197.2,27.4,197.2,27.4z"/>
	<path fill="#D9F7FC" d="M199.9,128.4c0,0.1-0.2,0.1-0.2,0s-0.2-5.3-0.2-5.3s-0.1-0.1-0.1,0s-0.4,5.2-0.4,5.3s-0.1,0.1-0.2,0
		c0-0.1-0.2-5.3-0.2-5.3s0-0.1-0.1,0s-0.4,5.2-0.4,5.3s-0.2,0.1-0.2,0c0-0.2-0.2-5.3-0.2-5.3s-0.1-0.1-0.1,0s-0.4,5.3-0.4,5.3
		c-0.1,0.1-0.1,0-0.1,0s-0.2-5.9-0.1-6.5s1-1.2,1-1.4c0.4-0.9-0.2-11.8-0.4-14.2c-0.1-1.9,2.2-1.5,2-0.1c-0.3,2.3-0.9,14.2-0.9,14.2
		s1,1,1.1,1.6C200.3,122.3,199.9,128.3,199.9,128.4z"/>
	<path fill="#075280" d="M197.8,7.3c0.2,0.1,0.1,0.1,0.2,0.2c0.1,0.1,0.2,0.3,0.2,0.5c0.4,0.8-0.2,11.8-0.3,13.4
		c-0.1,1.3,2,1.3,1.9,0.1c-0.2-2.2-1.2-12.5-0.8-13.4c0.1-0.4,0-0.5,0.5-0.8c0.9-0.9,2.2-7.2-1-7.2C195.3,0.1,197.2,7.1,197.8,7.3z"
		/>
	<path fill="#5CB9D6" d="M227.8,1.3c0.1,0.1,0.1,0.1,0.1,0.1c0.1,0.1,0.1,0.1,0.1,0.2c0.2,0.5-0.1,6.3-0.2,7.1c0,0.7,1,0.7,1,0.1
		c-0.1-1.2-0.7-6.6-0.4-7.1c0.1-0.2,0-0.2,0.3-0.5c0.5-0.5,1.2-3.8-0.5-3.8C226.4-2.5,227.4,1.2,227.8,1.3z"/>
	<path fill="#1C3A4D" d="M206.8-12.8c0-0.1,0.2-0.1,0.2,0s0.2,6.8,0.2,6.8s0.1,0.1,0.1,0c0.1-0.1,0.5-6.8,0.5-6.8
		c0-0.1,0.2-0.1,0.2,0s0.2,6.8,0.2,6.8s0.1,0.1,0.1,0c0.1-0.1,0.5-6.7,0.5-6.8s0.2-0.1,0.2,0c0,0.2,0.2,6.8,0.2,6.8s0.1,0.1,0.1,0
		c0.1-0.1,0.5-6.8,0.5-6.8c0.1-0.1,0.2,0,0.2,0s0.2,7.6,0.1,8.4s-1.3,1.6-1.3,1.8c-0.5,1.2,0.2,15.3,0.4,18.3
		c0.2,2.4-2.8,1.9-2.6,0.2c0.4-3,1.1-18.4,1.1-18.4s-1.3-1.3-1.4-2.1C206.3-5,206.8-12.7,206.8-12.8z"/>
	<path fill="#D9F7FC" d="M593.2,368.7c0-0.1,0.2-0.1,0.2,0c0,0.1,0.2,6.8,0.2,6.8s0.1,0.1,0.1,0c0.1-0.1,0.5-6.8,0.5-6.8
		s0.2-0.1,0.2,0c0,0.1,0.2,6.8,0.2,6.8s0.1,0.1,0.1,0c0.1-0.1,0.5-6.7,0.5-6.8c0-0.1,0.2-0.1,0.2,0c0,0.2,0.2,6.8,0.2,6.8
		s0.1,0.1,0.1,0c0.1-0.1,0.5-6.8,0.5-6.8c0.1-0.1,0.2,0,0.2,0s0.2,7.6,0.1,8.4c-0.1,0.8-1.3,1.6-1.3,1.8c-0.5,1.2,0.2,15.3,0.4,18.3
		c0.2,2.4-2.8,1.9-2.6,0.2c0.4-3,1.1-18.4,1.1-18.4s-1.3-1.3-1.4-2.1C592.7,376.5,593.2,368.7,593.2,368.7z"/>
	<path fill="#D9F7FC" d="M225.6,122.5c0,0.2-0.2,0.1-0.2,0s-0.2-8.4-0.2-8.4s-0.1-0.1-0.1,0c-0.1,0.1-0.6,8.3-0.6,8.4
		s-0.2,0.2-0.2,0c0-0.1-0.2-8.4-0.2-8.4s-0.1-0.1-0.1,0c-0.1,0.1-0.6,8.3-0.6,8.3c0,0.1-0.2,0.1-0.2,0c0-0.3-0.3-8.4-0.3-8.4
		s-0.1-0.1-0.1,0c-0.1,0.1-0.6,8.3-0.6,8.4c-0.1,0.2-0.2,0-0.2,0s-0.2-9.4-0.1-10.3c0.2-1,1.5-1.9,1.7-2.2
		c0.7-1.4-0.2-18.7-0.5-22.5c-0.2-2.9,3.5-2.4,3.2-0.2c-0.5,3.7-1.4,22.6-1.4,22.6s1.6,1.6,1.7,2.6
		C226.2,112.9,225.6,122.4,225.6,122.5z"/>
	<path fill="#DFE5E5" d="M208.2,112.9c0.2,0.2,0.2,0.2,0.2,0.3c0.1,0.2,0.2,0.4,0.4,0.7c0.5,1.2-0.3,16.4-0.4,18.6
		c-0.1,1.8,2.7,1.8,2.6,0.2c-0.4-3.1-1.7-17.3-1.1-18.5c0.2-0.5,0-0.7,0.7-1.2c1.3-1.3,3.1-10-1.4-10
		C204.7,102.9,207.4,112.6,208.2,112.9z"/>
	<path fill="#2E627C" d="M260.5,10.2c0.3,0.3,0.2,0.2,0.4,0.4c0.2,0.2,0.3,0.5,0.4,0.8c0.7,1.6-0.4,21.6-0.6,24.5
		c-0.1,2.4,3.6,2.3,3.5,0.2c-0.4-4.1-2.2-22.9-1.6-24.4c0.2-0.7,0-0.9,1-1.6c1.6-1.7,4.1-13.2-1.9-13.2
		C255.7-2.9,259.3,9.8,260.5,10.2z"/>
	<path fill="#075280" d="M226.3-37c0.3,0.3,0.2,0.2,0.4,0.4s0.3,0.5,0.4,0.8c0.7,1.6-0.4,21.6-0.6,24.5c-0.1,2.4,3.6,2.3,3.5,0.2
		c-0.4-4.1-2.2-22.9-1.6-24.4c0.2-0.7,0-0.9,1-1.6c1.6-1.7,4.1-13.2-1.9-13.2C221.6-50.1,225.2-37.4,226.3-37z"/>
	<path fill="#5CB9D6" d="M239.2,53.4c0,0.1-0.2,0.1-0.2,0s-0.2-6.5-0.2-6.5s-0.1-0.1-0.1,0c-0.1,0.1-0.5,6.4-0.5,6.5s-0.2,0.1-0.2,0
		s-0.2-6.5-0.2-6.5s0-0.1-0.1,0s-0.5,6.4-0.5,6.5s-0.2,0.1-0.2,0c0-0.2-0.2-6.5-0.2-6.5s-0.1-0.1-0.1,0s-0.6,6.6-0.6,6.7
		c-0.1,0.1-0.2,0-0.2,0s-0.2-7.3-0.1-8c0.1-0.8,1.2-1.5,1.3-1.7c0.5-1.1-0.2-14.5-0.4-17.5c-0.2-2.3,2.7-1.9,2.5-0.1
		c-0.4,2.9-1.1,17.5-1.1,17.5s1.2,1.3,1.3,2C239.6,45.9,239.2,53.3,239.2,53.4z"/>
	<path fill="#075280" d="M237.4,0.1c0.2,0.2,0.2,0.2,0.2,0.2c0.1,0.2,0.2,0.4,0.3,0.5c0.5,1.1-0.2,14.5-0.4,16.5
		c-0.1,1.6,2.4,1.6,2.3,0.1c-0.3-2.8-1.4-15.4-1-16.5c0.2-0.5,0-0.6,0.7-1c1.1-1.1,2.8-8.9-1.3-8.8C234.2-8.8,236.6-0.2,237.4,0.1z"
		/>
	<path fill="#5CB9D6" d="M260.4-16c0.1,0.1,0.1,0.1,0.1,0.1c0.1,0.1,0.1,0.2,0.2,0.3c0.2,0.5-0.1,7.7-0.2,8.7c0,0.8,1.3,0.8,1.3,0.1
		c-0.2-1.4-0.8-8.2-0.5-8.7c0.1-0.2,0-0.3,0.4-0.5c0.6-0.6,1.4-4.7-0.7-4.7C258.7-20.7,260-16.2,260.4-16z"/>
	<path fill="#1C3A4D" d="M248.4-24.7c0-0.2,0.2-0.1,0.2,0s0.2,8.4,0.2,8.4s0.1,0.1,0.1,0s0.6-8.3,0.6-8.4c0-0.1,0.2-0.2,0.2,0
		c0,0.1,0.2,8.4,0.2,8.4s0.1,0.1,0.1,0c0.1-0.1,0.6-8.3,0.6-8.3c0-0.1,0.2-0.1,0.2,0c0,0.3,0.3,8.4,0.3,8.4s0.1,0.1,0.1,0
		c0.1-0.1,0.6-8.3,0.6-8.4c0.1-0.2,0.2,0,0.2,0s0.2,9.4,0.1,10.3c-0.2,1-1.5,1.9-1.7,2.2c-0.7,1.4,0.2,18.7,0.5,22.5
		c0.2,2.9-3.5,2.4-3.2,0.2c0.5-3.7,1.4-22.6,1.4-22.6s-1.6-1.6-1.7-2.6C247.8-15.1,248.4-24.6,248.4-24.7z"/>
	<path fill="#DFE5E5" d="M293.6,106.1c0.2,0.2,0.1,0.1,0.2,0.2c0.1,0.1,0.2,0.3,0.3,0.5c0.4,1-0.2,13.3-0.4,15.1
		c-0.1,1.5,2.2,1.4,2.2,0.1c-0.3-2.5-1.3-14.1-1-15.1c0.2-0.4,0-0.5,0.6-1c1-1,2.5-8.2-1.1-8.1C290.7,98.1,292.9,105.9,293.6,106.1z
		"/>
	<path fill="#2E627C" d="M301.1,0.2c0.2,0.2,0.2,0.2,0.3,0.3c0.1,0.2,0.2,0.4,0.4,0.7c0.6,1.3-0.3,17.6-0.5,19.9
		c-0.1,2,2.9,1.9,2.8,0.2c-0.4-3.3-1.8-18.6-1.3-19.9c0.2-0.6,0-0.7,0.8-1.3c1.3-1.4,3.3-10.8-1.6-10.7
		C297.2-10.5,300.1-0.1,301.1,0.2z"/>
	<path fill="#2E6080" d="M314.2,18.9c-0.1-0.5-0.5-6.3-0.7-11.1c0.2-4.8-0.2-10.1-0.1-11c0-0.4-0.1-0.7-0.3-0.7L313-4l0,0
		c-0.2-0.2-0.7,0-1.1,0.8c-1,1.9-1.3,7.7,0.1,10.8c0,0.1,0.1,0.1,0.1,0.2c0.4,1.4,0.1,9.7,0,11.1C312,20.2,314.3,20.2,314.2,18.9z"
		/>
	<path fill="#DFE5E5" d="M310.4,32.9c0.2,0.2,0.2,0.2,0.3,0.3c0.1,0.2,0.2,0.4,0.4,0.7c0.6,1.3-0.3,17.6-0.5,19.9
		c-0.1,2,2.9,1.9,2.8,0.2c-0.4-3.3-1.8-18.6-1.3-19.9c0.2-0.6,0-0.7,0.8-1.3c1.3-1.4,3.3-10.8-1.6-10.7
		C306.6,22.2,309.5,32.6,310.4,32.9z"/>
	<path fill="#5CB9D6" d="M281.7,12.1c0-0.1,0.2-0.1,0.2,0s0.2,5.3,0.2,5.3s0.1,0.1,0.1,0s0.4-5.2,0.4-5.3c0.1-0.1,0.1-0.1,0.2,0
		c0,0.1,0.2,5.3,0.2,5.3s0,0.1,0.1,0s0.4-5.2,0.4-5.3s0.2-0.1,0.2,0c0,0.2,0.2,5.3,0.2,5.3s0.1,0.1,0.1,0s0.4-5.3,0.4-5.3
		c0.1-0.1,0.1,0,0.1,0s0.1,5.9,0,6.5s-1,1.2-1,1.4c-0.4,0.9,0.2,11.8,0.4,14.2c0.1,1.9-2.2,1.5-2,0.1c0.3-2.3,0.9-14.2,0.9-14.2
		s-1-1-1.1-1.6C281.3,18.1,281.6,12.1,281.7,12.1z"/>
	<path fill="#075280" d="M282.3-8c0.2,0.1,0.1,0.1,0.2,0.2c0.1,0.1,0.2,0.3,0.2,0.5c0.4,0.8-0.2,11.8-0.3,13.4
		c-0.1,1.3,2,1.3,1.9,0.1c-0.2-2.2-1.2-12.5-0.8-13.4c0.1-0.4,0-0.5,0.5-0.8c0.9-0.9,2.2-7.2-1-7.2C279.7-15.2,281.7-8.2,282.3-8z"
		/>
	<path fill="#DFE5E5" d="M282.3,123.4c0.2,0.1,0.1,0.1,0.2,0.2c0.1,0.1,0.2,0.3,0.2,0.5c0.4,0.8-0.2,11.8-0.3,13.4
		c-0.1,1.3,2,1.3,1.9,0.1c-0.2-2.2-1.2-12.5-0.8-13.4c0.1-0.4,0-0.5,0.5-0.8c0.9-0.9,2.2-7.2-1-7.2
		C279.7,116.2,281.7,123.2,282.3,123.4z"/>
	<path fill="#5CB9D6" d="M304.7,135c0.1,0.1,0.1,0.1,0.1,0.1s0.1,0.1,0.1,0.2c0.2,0.5-0.1,6.3-0.2,7.1c0,0.7,1,0.7,1,0.1
		c-0.1-1.2-0.7-6.6-0.4-7.1c0.1-0.2,0-0.2,0.3-0.5c0.5-0.5,1.2-3.8-0.5-3.8C303.4,131.2,304.4,134.9,304.7,135z"/>
	<path fill="#5CB9D6" d="M312.3-14c0.1,0.1,0.1,0.1,0.1,0.1c0.1,0.1,0.1,0.1,0.1,0.2c0.2,0.5-0.1,6.3-0.2,7.1c0,0.7,1,0.7,1,0.1
		c-0.1-1.2-0.7-6.6-0.4-7.1c0.1-0.2,0-0.2,0.3-0.5c0.5-0.5,1.2-3.8-0.5-3.8C310.9-17.8,312-14.1,312.3-14z"/>
	<path fill="#1C3A4D" d="M515.3-11.8c0-0.1,0.2-0.1,0.2,0s0.2,6.8,0.2,6.8s0.1,0.1,0.1,0c0.1-0.1,0.5-6.8,0.5-6.8
		c0-0.1,0.2-0.1,0.2,0s0.2,6.8,0.2,6.8s0.1,0.1,0.1,0c0.1-0.1,0.5-6.7,0.5-6.8s0.2-0.1,0.2,0c0,0.2,0.2,6.8,0.2,6.8s0.1,0.1,0.1,0
		c0.1-0.1,0.5-6.8,0.5-6.8c0.1-0.1,0.2,0,0.2,0s0.2,7.6,0.1,8.4c-0.1,0.8-1.3,1.6-1.3,1.8c-0.5,1.2,0.2,15.3,0.4,18.3
		c0.2,2.4-2.8,1.9-2.6,0.2c0.4-3,1.1-18.4,1.1-18.4s-1.3-1.3-1.4-2.1C514.8-4,515.3-11.7,515.3-11.8z"/>
	<path fill="#D9F7FC" d="M292.2,129.4c0-0.1,0.2-0.1,0.2,0s0.2,6.8,0.2,6.8s0.1,0.1,0.1,0s0.5-6.8,0.5-6.8c0-0.1,0.2-0.1,0.2,0
		s0.2,6.8,0.2,6.8s0.1,0.1,0.1,0c0.1-0.1,0.5-6.7,0.5-6.8s0.2-0.1,0.2,0c0,0.2,0.2,6.8,0.2,6.8s0.1,0.1,0.1,0s0.5-6.8,0.5-6.8
		c0.1-0.1,0.2,0,0.2,0s0.2,7.6,0.1,8.4c-0.1,0.8-1.3,1.6-1.3,1.8c-0.5,1.2,0.2,15.3,0.4,18.3c0.2,2.4-2.8,1.9-2.6,0.2
		c0.4-3,1.1-18.4,1.1-18.4s-1.3-1.3-1.4-2.1C291.7,137.2,292.2,129.5,292.2,129.4z"/>
	<path fill="#D9F7FC" d="M339.9,95.7c0,0.2-0.2,0.1-0.2,0s-0.2-8.4-0.2-8.4s-0.1-0.1-0.1,0c-0.1,0.1-0.6,8.3-0.6,8.4s-0.2,0.2-0.2,0
		c0-0.1-0.2-8.4-0.2-8.4s-0.1-0.1-0.1,0c-0.1,0.1-0.6,8.3-0.6,8.3c0,0.1-0.2,0.1-0.2,0c0-0.3-0.3-8.4-0.3-8.4s-0.1-0.1-0.1,0
		c-0.1,0.1-0.6,8.3-0.6,8.4c-0.1,0.2-0.2,0-0.2,0s-0.2-9.4-0.1-10.3c0.2-1,1.5-1.9,1.7-2.2c0.7-1.4-0.2-18.7-0.5-22.5
		c-0.2-2.9,3.5-2.4,3.2-0.2c-0.5,3.7-1.4,22.6-1.4,22.6s1.6,1.6,1.7,2.6C340.5,86.1,339.9,95.6,339.9,95.7z"/>
	<path fill="#2E627C" d="M345.2,20.9c0.2,0.2,0.1,0.1,0.3,0.3c0.1,0.1,0.2,0.4,0.3,0.6c0.5,1.2-0.3,15.5-0.4,17.6
		c-0.1,1.7,2.6,1.7,2.5,0.1c-0.3-2.9-1.6-16.5-1.2-17.6c0.1-0.5,0-0.6,0.7-1.2c1.2-1.2,2.9-9.5-1.4-9.5
		C341.7,11.4,344.3,20.6,345.2,20.9z"/>
	<path fill="#2E6080" d="M358.1,17.6c-0.1-0.7-0.7-7.7-0.8-13.6c0.3-5.9-0.2-12.4-0.2-13.5c0-0.5-0.1-0.8-0.4-0.8l-0.1-0.1l0,0
		c-0.3-0.2-0.8,0-1.4,1c-1.3,2.3-1.6,9.5,0.2,13.2c0,0.1,0.1,0.1,0.1,0.2c0.4,1.7,0.1,12,0,13.6C355.3,19.1,358.2,19.2,358.1,17.6z"
		/>
	<path fill="#DFE5E5" d="M357.8,35.4c0.3,0.3,0.2,0.2,0.4,0.4c0.2,0.2,0.3,0.5,0.4,0.8c0.7,1.6-0.4,21.6-0.6,24.5
		c-0.1,2.4,3.6,2.3,3.5,0.2c-0.4-4.1-2.2-22.9-1.6-24.4c0.2-0.7,0-0.9,1-1.6c1.6-1.7,4.1-13.2-1.9-13.2
		C353,22.2,356.6,35,357.8,35.4z"/>
	<path fill="#E4F5F9" d="M360.5,145c-0.1-0.7-0.7-7.7-0.8-13.6c0.3-5.9-0.2-12.4-0.2-13.5c0-0.5-0.1-0.8-0.4-0.8L359,117l0,0
		c-0.3-0.2-0.8,0-1.4,1c-1.3,2.3-1.6,9.5,0.2,13.2c0,0.1,0.1,0.1,0.1,0.2c0.4,1.7,0.1,12,0,13.6C357.7,146.5,360.6,146.6,360.5,145z
		"/>
	<path fill="#2E627C" d="M335.9,38.5c-0.2-0.9-0.9-10.4-1.1-18.1c0.4-7.9-0.3-16.6-0.2-17.9c0.1-0.6-0.2-1.1-0.5-1.2
		C334,1.2,334,1.2,334,1.2l0,0c-0.4-0.3-1.2,0.1-1.8,1.2c-1.7,3.2-2.1,12.8,0.2,17.6c0.1,0.1,0.1,0.2,0.1,0.3
		c0.5,2.3,0.2,15.9,0,18.1C332.1,40.5,336,40.6,335.9,38.5z"/>
	<path fill="#5CB9D6" d="M323.6,38.1c0,0.1-0.2,0.1-0.2,0s-0.2-6.5-0.2-6.5s-0.1-0.1-0.1,0s-0.5,6.4-0.5,6.5s-0.2,0.1-0.2,0
		s-0.2-6.5-0.2-6.5s0-0.1-0.1,0s-0.5,6.4-0.5,6.5s-0.2,0.1-0.2,0c0-0.2-0.2-6.5-0.2-6.5s-0.1-0.1-0.1,0c-0.1,0.1-0.5,6.5-0.5,6.5
		c-0.1,0.1-0.2,0-0.2,0s-0.2-7.3-0.1-8c0.1-0.8,1.2-1.5,1.3-1.7c0.5-1.1-0.2-14.5-0.4-17.5c-0.2-2.3,2.7-1.9,2.5-0.1
		c-0.4,2.9-1.1,17.5-1.1,17.5s1.2,1.3,1.3,2C324.1,30.7,323.6,38,323.6,38.1z"/>
	<path fill="#075280" d="M520.1,36.2c0.2,0.2,0.2,0.2,0.2,0.2c0.1,0.2,0.2,0.4,0.3,0.5c0.5,1.1-0.2,14.5-0.4,16.5
		c-0.1,1.6,2.4,1.6,2.3,0.1c-0.3-2.8-1.4-15.4-1-16.5c0.2-0.5,0-0.6,0.7-1c1.1-1.1,2.8-8.9-1.3-8.8C516.9,27.4,519.3,36,520.1,36.2z
		"/>
	<path fill="#5CB9D6" d="M358.7-22.6c0.1,0.1,0.1,0.1,0.1,0.1c0.1,0.1,0.1,0.2,0.2,0.3c0.2,0.5-0.1,7.7-0.2,8.7
		c0,0.8,1.3,0.8,1.3,0.1c-0.2-1.4-0.8-8.2-0.5-8.7c0.1-0.2,0-0.3,0.4-0.5c0.6-0.6,1.4-4.7-0.7-4.7C357-27.3,358.3-22.8,358.7-22.6z"
		/>
	<path fill="#1C3A4D" d="M332.9-39.9c0-0.2,0.2-0.1,0.2,0s0.2,8.4,0.2,8.4s0.1,0.1,0.1,0c0.1-0.1,0.6-8.3,0.6-8.4s0.2-0.2,0.2,0
		c0,0.1,0.2,8.4,0.2,8.4s0.1,0.1,0.1,0c0.1-0.1,0.6-8.3,0.6-8.3c0-0.1,0.2-0.1,0.2,0c0,0.3,0.3,8.4,0.3,8.4s0.1,0.1,0.1,0
		c0.1-0.1,0.6-8.3,0.6-8.4c0.1-0.2,0.2,0,0.2,0s0.2,9.4,0.1,10.3c-0.2,1-1.5,1.9-1.7,2.2c-0.7,1.4,0.2,18.7,0.5,22.5
		c0.2,2.9-3.5,2.4-3.2,0.2c0.5-3.7,1.4-22.6,1.4-22.6s-1.6-1.6-1.7-2.6C332.3-30.3,332.9-39.9,332.9-39.9z"/>
	<path fill="#D9F7FC" d="M596,139.2c0,0.1-0.2,0.1-0.2,0c0-0.1-0.2-6.8-0.2-6.8s-0.1-0.1-0.1,0c-0.1,0.1-0.5,6.8-0.5,6.8
		c0,0.1-0.2,0.1-0.2,0c0-0.1-0.2-6.8-0.2-6.8s-0.1-0.1-0.1,0c-0.1,0.1-0.5,6.7-0.5,6.8s-0.2,0.1-0.2,0c0-0.2-0.2-6.8-0.2-6.8
		s-0.1-0.1-0.1,0c-0.1,0.1-0.5,6.8-0.5,6.8c-0.1,0.1-0.2,0-0.2,0s-0.2-7.6-0.1-8.4c0.1-0.8,1.3-1.6,1.3-1.8
		c0.5-1.2-0.2-15.3-0.4-18.3c-0.2-2.4,2.8-1.9,2.6-0.2c-0.4,3-1.1,18.4-1.1,18.4s1.3,1.3,1.4,2.1C596.5,131.3,596,139.1,596,139.2z"
		/>
	<path fill="#DFE5E5" d="M377.2,126.8c0.2,0.2,0.1,0.1,0.2,0.2s0.2,0.3,0.3,0.5c0.4,1-0.2,13.3-0.4,15.1c-0.1,1.5,2.2,1.4,2.2,0.1
		c-0.3-2.5-1.3-14.1-1-15.1c0.2-0.4,0-0.5,0.6-1c1-1,2.5-8.2-1.1-8.1C374.3,118.7,376.5,126.6,377.2,126.8z"/>
	<path fill="#DFE5E5" d="M386.1,12.2c0.2,0.2,0.2,0.2,0.3,0.3c0.1,0.2,0.2,0.4,0.4,0.7c0.6,1.3-0.3,17.6-0.5,19.9
		c-0.1,2,2.9,1.9,2.8,0.2c-0.4-3.3-1.8-18.6-1.3-19.9c0.2-0.6,0-0.7,0.8-1.3c1.3-1.4,3.3-10.8-1.6-10.7
		C382.3,1.5,385.2,11.9,386.1,12.2z"/>
	<path fill="#5CB9D6" d="M366.6,106.2c0-0.1,0.1-0.1,0.1,0s0.1,3.6,0.1,3.6s0,0,0.1,0s0.2-3.5,0.2-3.6s0.1-0.1,0.1,0
		s0.1,3.6,0.1,3.6s0,0.1,0.1,0c0-0.1,0.2-3.5,0.2-3.6s0.1-0.1,0.1,0s0.1,3.6,0.1,3.6s0,0.1,0.1,0c0-0.1,0.2-3.6,0.2-3.6
		c0.1-0.1,0.1,0,0.1,0s0.1,4,0,4.4s-0.7,0.8-0.7,1c-0.3,0.6,0.1,8,0.2,9.7c0.1,1.3-1.5,1-1.4,0.1c0.2-1.6,0.6-9.7,0.6-9.7
		s-0.7-0.7-0.7-1.1C366.3,110.3,366.6,106.3,366.6,106.2z"/>
	<path fill="#E4F5F9" d="M401.6,65c-0.1-0.5-0.5-6.3-0.7-11.1c0.2-4.8-0.2-10.1-0.1-11c0-0.4-0.1-0.7-0.3-0.7l-0.1-0.1l0,0
		c-0.2-0.2-0.7,0-1.1,0.8c-1,1.9-1.3,7.7,0.1,10.8c0,0.1,0.1,0.1,0.1,0.2c0.4,1.4,0.1,9.7,0,11.1C399.4,66.2,401.7,66.2,401.6,65z"
		/>
	<path fill="#2E627C" d="M377.6,42c-0.1-0.6-0.6-6.9-0.8-12c0.3-5.2-0.2-11-0.1-11.9c0-0.4-0.1-0.7-0.3-0.8
		c-0.1-0.1-0.1-0.1-0.1-0.1l0,0c-0.3-0.2-0.8,0.1-1.2,0.8c-1.1,2.1-1.4,8.4,0.1,11.7c0.1,0.1,0.1,0.1,0.1,0.2c0.4,1.5,0.1,10.6,0,12
		C375.2,43.4,377.7,43.4,377.6,42z"/>
	<path fill="#5CB9D6" d="M366.7,24c0-0.1,0.2-0.1,0.2,0s0.2,5.3,0.2,5.3s0.1,0.1,0.1,0s0.4-5.2,0.4-5.3c0-0.1,0.1-0.1,0.2,0
		c0,0.1,0.2,5.3,0.2,5.3s0,0.1,0.1,0s0.4-5.2,0.4-5.3s0.2-0.1,0.2,0c0,0.2,0.2,5.3,0.2,5.3s0.1,0.1,0.1,0s0.4-5.3,0.4-5.3
		c0.1-0.1,0.1,0,0.1,0s0.2,5.9,0.1,6.5s-1,1.2-1,1.4c-0.4,0.9,0.2,11.8,0.4,14.2c0.1,1.9-2.2,1.5-2,0.1c0.3-2.3,0.9-14.2,0.9-14.2
		s-1-1-1.1-1.6C366.3,30.1,366.7,24.1,366.7,24z"/>
	<path fill="#075280" d="M367.3,3.9c0.2,0.1,0.1,0.1,0.2,0.2s0.2,0.3,0.2,0.5c0.4,0.8-0.2,11.8-0.3,13.4c-0.1,1.3,2,1.3,1.9,0.1
		c-0.2-2.2-1.2-12.5-0.8-13.4c0.1-0.4,0-0.5,0.5-0.8c0.9-0.9,2.2-7.2-1-7.2C364.7-3.2,366.7,3.7,367.3,3.9z"/>
	<path fill="#DFE5E5" d="M367.3,135.3c0.2,0.1,0.1,0.1,0.2,0.2s0.2,0.3,0.2,0.5c0.4,0.8-0.2,11.8-0.3,13.4c-0.1,1.3,2,1.3,1.9,0.1
		c-0.2-2.2-1.2-12.5-0.8-13.4c0.1-0.4,0-0.5,0.5-0.8c0.9-0.9,2.2-7.2-1-7.2C364.7,128.2,366.7,135.1,367.3,135.3z"/>
	<path fill="#1C3A4D" d="M376.3-16.2c0-0.1,0.2-0.1,0.2,0s0.2,6.8,0.2,6.8s0.1,0.1,0.1,0c0.1-0.1,0.5-6.8,0.5-6.8s0.2-0.1,0.2,0
		s0.2,6.8,0.2,6.8s0.1,0.1,0.1,0c0.1-0.1,0.5-6.7,0.5-6.8s0.2-0.1,0.2,0c0,0.2,0.2,6.8,0.2,6.8s0.1,0.1,0.1,0
		c0.1-0.1,0.5-6.8,0.5-6.8c0.1-0.1,0.2,0,0.2,0s0.2,7.6,0.1,8.4c-0.1,0.8-1.3,1.6-1.3,1.8c-0.5,1.2,0.2,15.3,0.4,18.3
		c0.2,2.4-2.8,1.9-2.6,0.2c0.4-3,1.1-18.4,1.1-18.4s-1.3-1.3-1.4-2.1C375.9-8.3,376.3-16.1,376.3-16.2z"/>
	<path fill="#D9F7FC" d="M400.2,174.3c0-0.1,0.2-0.1,0.2,0s0.2,6.8,0.2,6.8s0.1,0.1,0.1,0c0.1-0.1,0.5-6.8,0.5-6.8
		c0-0.1,0.2-0.1,0.2,0s0.2,6.8,0.2,6.8s0.1,0.1,0.1,0c0.1-0.1,0.5-6.7,0.5-6.8s0.2-0.1,0.2,0c0,0.2,0.2,6.8,0.2,6.8s0.1,0.1,0.1,0
		c0.1-0.1,0.5-6.8,0.5-6.8c0.1-0.1,0.2,0,0.2,0s0.2,7.6,0.1,8.4c-0.1,0.8-1.3,1.6-1.3,1.8c-0.5,1.2,0.2,15.3,0.4,18.3
		c0.2,2.4-2.8,1.9-2.6,0.2c0.4-3,1.1-18.4,1.1-18.4s-1.3-1.3-1.4-2.1C399.8,182.1,400.2,174.5,400.2,174.3z"/>
	<path fill="#D9F7FC" d="M161.6,182.5c0,0.1-0.2,0.1-0.2,0s-0.2-6.8-0.2-6.8s-0.1-0.1-0.1,0c-0.1,0.1-0.5,6.7-0.5,6.8
		s-0.2,0.1-0.2,0s-0.2-6.8-0.2-6.8s-0.1-0.1-0.1,0s-0.5,6.7-0.5,6.8s-0.2,0.1-0.2,0c0-0.2-0.2-6.8-0.2-6.8s-0.1-0.1-0.1,0
		s-0.5,6.7-0.5,6.8c-0.1,0.1-0.2,0-0.2,0s-0.2-7.6-0.1-8.3c0.1-0.8,1.3-1.6,1.3-1.8c0.5-1.2-0.2-15.1-0.4-18.2
		c-0.2-2.4,2.8-1.9,2.6-0.2c-0.4,3-1.1,18.3-1.1,18.3s1.3,1.3,1.4,2.1C162.2,174.7,161.6,182.4,161.6,182.5z"/>
	<path fill="#E4F5F9" d="M275.6,71.7c-0.1-0.7-0.7-7.7-0.8-13.6c0.3-5.9-0.2-12.4-0.2-13.5c0-0.5-0.1-0.8-0.4-0.8l-0.1-0.1l0,0
		c-0.3-0.2-0.8,0-1.4,1c-1.3,2.3-1.6,9.5,0.2,13.2c0,0.1,0.1,0.1,0.1,0.2c0.4,1.7,0.1,12,0,13.6C272.8,73.2,275.7,73.3,275.6,71.7z"
		/>
	<path fill="#075280" d="M395.9-40.4c0.3,0.3,0.2,0.2,0.4,0.4c0.2,0.2,0.3,0.5,0.4,0.8c0.7,1.6-0.4,21.6-0.6,24.5
		c-0.1,2.4,3.6,2.3,3.5,0.2c-0.4-4.1-2.2-22.9-1.6-24.4c0.2-0.7,0-0.9,1-1.6c1.6-1.7,4.1-13.2-1.9-13.2
		C391.1-53.5,394.7-40.7,395.9-40.4z"/>
	<path fill="#5CB9D6" d="M148.9,177.5c0.1,0.1,0.1,0.1,0.1,0.1s0.1,0.2,0.2,0.3c0.2,0.5-0.1,7.7-0.2,8.7c0,0.8,1.3,0.8,1.3,0.1
		c-0.2-1.4-0.8-8.2-0.5-8.7c0.1-0.2,0-0.3,0.4-0.5c0.6-0.6,1.4-4.7-0.7-4.7C147.3,172.9,148.6,177.4,148.9,177.5z"/>
	<path fill="#5CB9D6" d="M306.4,62.9c-0.1-0.7-0.7-7.7-0.8-13.6c0.3-5.9-0.2-12.4-0.2-13.5c0-0.5-0.1-0.8-0.4-0.8l-0.1-0.1l0,0
		c-0.3-0.2-0.8,0-1.4,1c-1.3,2.3-1.6,9.5,0.2,13.2c0,0.1,0.1,0.1,0.1,0.2c0.4,1.7,0.1,12,0,13.6C303.7,64.5,306.5,64.5,306.4,62.9z"
		/>
	<path fill="#DFE5E5" d="M329.3,73.1c0.2,0.2,0.2,0.2,0.2,0.2c0.1,0.2,0.2,0.4,0.3,0.5c0.5,1.1-0.2,14.5-0.4,16.5
		c-0.1,1.6,2.4,1.6,2.3,0.1c-0.3-2.8-1.4-15.4-1-16.5c0.2-0.5,0-0.6,0.7-1c1.1-1.1,2.8-8.9-1.3-8.8
		C326.1,64.3,328.5,72.8,329.3,73.1z"/>
	<path fill="#E4F5F9" d="M398.1,240.1c-0.1-0.5-0.5-6.3-0.7-11.1c0.2-4.8-0.2-10.1-0.1-11c0-0.4-0.1-0.7-0.3-0.7l-0.1-0.1l0,0
		c-0.2-0.2-0.7,0-1.1,0.8c-1,1.9-1.3,7.7,0.1,10.8c0,0.1,0.1,0.1,0.1,0.2c0.4,1.4,0.1,9.7,0,11.1
		C395.8,241.4,398.1,241.4,398.1,240.1z"/>
	<path fill="#5CB9D6" d="M206.4,235.3c0-0.1,0.2-0.1,0.2,0s0.2,5.3,0.2,5.3s0.1,0.1,0.1,0s0.4-5.2,0.4-5.3c0.1-0.1,0.1-0.1,0.2,0
		c0,0.1,0.2,5.3,0.2,5.3s0,0.1,0.1,0s0.4-5.2,0.4-5.3s0.2-0.1,0.2,0c0,0.2,0.2,5.3,0.2,5.3s0.1,0.1,0.1,0s0.4-5.3,0.4-5.3
		c0.1-0.1,0.1,0,0.1,0s0.2,5.9,0.1,6.5s-1,1.2-1,1.4c-0.4,0.9,0.2,11.8,0.4,14.2c0.1,1.9-2.2,1.5-2,0.1c0.3-2.3,0.9-14.2,0.9-14.2
		s-1-1-1.1-1.6C206.1,241.3,206.4,235.3,206.4,235.3z"/>
	<path fill="#DFE5E5" d="M205.1,215.3c0.2,0.1,0.1,0.1,0.2,0.2c0.1,0.1,0.2,0.3,0.2,0.5c0.4,0.8-0.2,11.8-0.3,13.4
		c-0.1,1.3,2,1.3,1.9,0.1c-0.2-2.2-1.2-12.5-0.8-13.4c0.1-0.4,0-0.5,0.5-0.8c0.9-0.9,2.2-7.2-1-7.2
		C202.6,208.1,204.5,215.1,205.1,215.3z"/>
	<path fill="#5CB9D6" d="M373.6,330.8c0.1,0.1,0.1,0.1,0.1,0.1s0.1,0.1,0.1,0.2c0.2,0.5-0.1,6.3-0.2,7.1c0,0.7,1,0.7,1,0.1
		c-0.1-1.2-0.7-6.6-0.4-7.1c0.1-0.2,0-0.2,0.3-0.5c0.5-0.5,1.2-3.8-0.5-3.8C372.3,327,373.3,330.6,373.6,330.8z"/>
	<path fill="#5CB9D6" d="M540.1,129c0.1,0.1,0.1,0.1,0.1,0.1s0.1,0.1,0.1,0.2c0.2,0.5-0.1,6.3-0.2,7.1c0,0.7,1,0.7,1,0.1
		c-0.1-1.2-0.7-6.6-0.4-7.1c0.1-0.2,0-0.2,0.3-0.5c0.5-0.5,1.2-3.8-0.5-3.8C538.7,125.1,539.7,128.9,540.1,129z"/>
	<path fill="#D9F7FC" d="M216,195.1c0-0.1,0.2-0.1,0.2,0s0.2,6.8,0.2,6.8s0.1,0.1,0.1,0c0.1-0.1,0.5-6.8,0.5-6.8
		c0-0.1,0.2-0.1,0.2,0s0.2,6.8,0.2,6.8s0.1,0.1,0.1,0c0.1-0.1,0.5-6.7,0.5-6.8s0.2-0.1,0.2,0c0,0.2,0.2,6.8,0.2,6.8s0.1,0.1,0.1,0
		c0.1-0.1,0.5-6.8,0.5-6.8c0.1-0.1,0.2,0,0.2,0s0.2,7.6,0.1,8.4c-0.1,0.8-1.3,1.6-1.3,1.8c-0.5,1.2,0.2,15.3,0.4,18.3
		c0.2,2.4-2.8,1.9-2.6,0.2c0.4-3,1.1-18.4,1.1-18.4s-1.3-1.3-1.4-2.1C215.6,202.9,216,195.1,216,195.1z"/>
	<path fill="#2E627C" d="M164,16.9c0.2,0.2,0.2,0.2,0.2,0.3c0.1,0.2,0.2,0.4,0.4,0.7c0.5,1.2-0.3,16.4-0.4,18.6
		c-0.1,1.8,2.7,1.8,2.6,0.2c-0.4-3.1-1.7-17.3-1.1-18.5c0.2-0.5,0-0.7,0.7-1.2c1.3-1.3,3.1-10-1.4-10C160.4,7,163.2,16.6,164,16.9z"
		/>
	<path fill="#5CB9D6" d="M309.7,235.1c0.1,0.1,0.1,0.1,0.1,0.1c0.1,0.1,0.1,0.2,0.2,0.3c0.2,0.5-0.1,7.7-0.2,8.7
		c0,0.8,1.3,0.8,1.3,0.1c-0.2-1.4-0.8-8.2-0.5-8.7c0.1-0.2,0-0.3,0.4-0.5c0.6-0.6,1.4-4.7-0.7-4.7C308,230.5,309.3,235,309.7,235.1z
		"/>
	<path fill="#E4F5F9" d="M324,254.1c-0.1-0.5-0.5-6.3-0.7-11.1c0.2-4.8-0.2-10.1-0.1-11c0-0.4-0.1-0.7-0.3-0.7l-0.1-0.1l0,0
		c-0.2-0.2-0.7,0-1.1,0.8c-1,1.9-1.3,7.7,0.1,10.8c0,0.1,0.1,0.1,0.1,0.2c0.4,1.4,0.1,9.7,0,11.1C321.8,255.3,324.1,255.4,324,254.1
		z"/>
	<path fill="#E4F5F9" d="M148.6,279.3c-0.1-0.5-0.5-6.3-0.7-11.1c0.2-4.8-0.2-10.1-0.1-11c0-0.4-0.1-0.7-0.3-0.7l-0.1-0.1l0,0
		c-0.2-0.2-0.7,0-1.1,0.8c-1,1.9-1.3,7.7,0.1,10.8c0,0.1,0.1,0.1,0.1,0.2c0.4,1.4,0.1,9.7,0,11.1
		C146.3,280.6,148.7,280.7,148.6,279.3z"/>
	<path fill="#DFE5E5" d="M498,188.3c0.2,0.1,0.1,0.1,0.2,0.2c0.1,0.1,0.2,0.3,0.2,0.5c0.4,0.8-0.2,11.8-0.3,13.4
		c-0.1,1.3,2,1.3,1.9,0.1c-0.2-2.2-1.2-12.5-0.8-13.4c0.1-0.4,0-0.5,0.5-0.8c0.9-0.9,2.2-7.2-1-7.2C495.4,181.1,497.4,188,498,188.3
		z"/>
	<path fill="#D9F7FC" d="M134.8,271.4c0-0.1,0.2-0.1,0.2,0s0.2,6.8,0.2,6.8s0.1,0.1,0.1,0c0.1-0.1,0.5-6.8,0.5-6.8s0.2-0.1,0.2,0
		s0.2,6.8,0.2,6.8s0.1,0.1,0.1,0c0.1-0.1,0.5-6.7,0.5-6.8c0-0.1,0.2-0.1,0.2,0c0,0.2,0.2,6.8,0.2,6.8s0.1,0.1,0.1,0
		c0.1-0.1,0.5-6.8,0.5-6.8c0.1-0.1,0.2,0,0.2,0s0.2,7.6,0.1,8.4c-0.1,0.8-1.3,1.6-1.3,1.8c-0.5,1.2,0.2,15.3,0.4,18.3
		c0.2,2.4-2.8,1.9-2.6,0.2c0.4-3,1.1-18.4,1.1-18.4s-1.3-1.3-1.4-2.1C134.2,279.2,134.7,271.4,134.8,271.4z"/>
	<path fill="#DFE5E5" d="M329.8,220c0.2,0.2,0.2,0.2,0.2,0.2c0.1,0.2,0.2,0.4,0.3,0.5c0.5,1.1-0.2,14.5-0.4,16.5
		c-0.1,1.6,2.4,1.6,2.3,0.1c-0.3-2.8-1.4-15.4-1-16.5c0.2-0.5,0-0.6,0.7-1c1.1-1.1,2.8-8.9-1.3-8.8C326.6,211.2,329,219.8,329.8,220
		z"/>
	<path fill="#E4F5F9" d="M313.6,218.8c-0.1-0.7-0.7-7.7-0.8-13.6c0.3-5.9-0.2-12.4-0.2-13.5c0-0.5-0.1-0.8-0.4-0.8l-0.1-0.1l0,0
		c-0.3-0.2-0.8,0-1.4,1c-1.3,2.3-1.6,9.5,0.2,13.2c0,0.1,0.1,0.1,0.1,0.2c0.4,1.7,0.1,12,0,13.6S313.8,220.4,313.6,218.8z"/>
	<path fill="#DFE5E5" d="M430.6,122.5c0.2,0.2,0.1,0.1,0.2,0.2s0.2,0.3,0.3,0.5c0.4,1-0.2,13.3-0.4,15.1c-0.1,1.5,2.2,1.4,2.2,0.1
		c-0.3-2.5-1.3-14.1-1-15.1c0.2-0.4,0-0.5,0.6-1c1-1,2.5-8.2-1.1-8.1C427.6,114.4,429.8,122.2,430.6,122.5z"/>
	<path fill="#DFE5E5" d="M427,25.9c0.2,0.2,0.2,0.2,0.3,0.3c0.1,0.2,0.2,0.4,0.4,0.7c0.6,1.3-0.3,17.6-0.5,19.9
		c-0.1,2,2.9,1.9,2.8,0.2c-0.4-3.3-1.8-18.6-1.3-19.9c0.2-0.6,0-0.7,0.8-1.3c1.3-1.4,3.3-10.8-1.6-10.7
		C423.1,15.2,426,25.6,427,25.9z"/>
	<path fill="#D9F7FC" d="M441.1,82.6c0-0.2,0.2-0.1,0.2,0s0.2,8.3,0.2,8.3s0.1,0.1,0.1,0s0.6-8.2,0.6-8.3c0-0.1,0.2-0.2,0.2,0
		c0,0.1,0.2,8.3,0.2,8.3s0.1,0.1,0.1,0c0.1-0.1,0.6-8.2,0.6-8.3s0.2-0.1,0.2,0c0,0.3,0.3,8.3,0.3,8.3s0.1,0.1,0.1,0s0.6-8.3,0.6-8.3
		c0.1-0.2,0.2,0,0.2,0s0.2,9.2,0.1,10.2c-0.2,1-1.5,1.9-1.6,2.2c-0.7,1.4,0.2,18.6,0.5,22.3c0.2,2.9-3.4,2.3-3.2,0.2
		c0.5-3.7,1.4-22.3,1.4-22.3s-1.5-1.6-1.7-2.5C440.4,92.1,441,82.8,441.1,82.6z"/>
	<path fill="#2E6080" d="M441.7,24.2c-0.1-0.5-0.5-6.3-0.7-11.1c0.2-4.8-0.2-10.1-0.1-11c0-0.4-0.1-0.7-0.3-0.7v0l0,0
		c-0.2-0.2-0.7,0-1.1,0.8c-1,1.9-1.3,7.7,0.1,10.8c0,0.1,0.1,0.1,0.1,0.2c0.4,1.4,0.1,9.7,0,11.1C439.5,25.5,441.9,25.5,441.7,24.2z
		"/>
	<path fill="#2E627C" d="M421.2,58.8c-0.1-0.8-0.7-8.3-0.9-14.5c0.3-6.3-0.2-13.3-0.2-14.3c0-0.5-0.2-0.8-0.4-0.9
		c-0.1-0.1-0.1-0.1-0.1-0.1l0,0c-0.3-0.2-0.9,0.1-1.4,1c-1.3,2.5-1.7,10.2,0.2,14c0.1,0.1,0.1,0.2,0.1,0.2c0.5,1.8,0.2,12.7,0,14.4
		C418.2,60.5,421.3,60.5,421.2,58.8z"/>
	<path fill="#5CB9D6" d="M409.5,35.8c0-0.1,0.2-0.1,0.2,0s0.2,5.3,0.2,5.3s0.1,0.1,0.1,0s0.4-5.2,0.4-5.3s0.1-0.1,0.2,0
		c0,0.1,0.2,5.3,0.2,5.3s0,0.1,0.1,0s0.4-5.2,0.4-5.3s0.2-0.1,0.2,0c0,0.2,0.2,5.3,0.2,5.3s0.1,0.1,0.1,0s0.4-5.3,0.4-5.3
		c0.1-0.1,0.1,0,0.1,0s0.2,5.9,0.1,6.5s-1,1.2-1,1.4c-0.4,0.9,0.2,11.8,0.4,14.2c0.1,1.9-2.2,1.5-2,0.1c0.3-2.3,0.9-14.2,0.9-14.2
		s-1-1-1.1-1.6C409.1,41.9,409.5,35.9,409.5,35.8z"/>
	<path fill="#DFE5E5" d="M410.1,15.7c0.2,0.1,0.1,0.1,0.2,0.2c0.1,0.1,0.2,0.3,0.2,0.5c0.4,0.8-0.2,11.8-0.3,13.4
		c-0.1,1.3,2,1.3,1.9,0.1c-0.2-2.2-1.2-12.5-0.8-13.4c0.1-0.4,0-0.5,0.5-0.8c0.9-0.9,2.2-7.2-1-7.2C407.5,8.5,409.5,15.5,410.1,15.7
		z"/>
	<path fill="#5CB9D6" d="M435.1,32.5c0.1,0.1,0.1,0.1,0.1,0.1c0.1,0.1,0.1,0.1,0.1,0.2c0.2,0.5-0.1,6.3-0.2,7.1c0,0.7,1,0.7,1,0.1
		c-0.1-1.2-0.7-6.6-0.4-7.1c0.1-0.2,0-0.2,0.3-0.5c0.5-0.5,1.2-3.8-0.5-3.8C433.8,28.7,434.8,32.4,435.1,32.5z"/>
	<path fill="#5CB9D6" d="M419.1-4.4c0-0.1,0.2-0.1,0.2,0s0.2,6.8,0.2,6.8s0.1,0.1,0.1,0c0.1-0.1,0.5-6.8,0.5-6.8
		c0-0.1,0.2-0.1,0.2,0s0.2,6.8,0.2,6.8s0.1,0.1,0.1,0c0.1-0.1,0.5-6.7,0.5-6.8c0-0.1,0.2-0.1,0.2,0c0,0.2,0.2,6.8,0.2,6.8
		s0.1,0.1,0.1,0c0.1-0.1,0.5-6.8,0.5-6.8c0.1-0.1,0.2,0,0.2,0s0.2,7.6,0.1,8.4s-1.3,1.6-1.3,1.8c-0.5,1.2,0.2,15.3,0.4,18.3
		c0.2,2.4-2.8,1.9-2.6,0.2c0.4-3,1.1-18.4,1.1-18.4s-1.3-1.3-1.4-2.1C418.6,3.4,419.1-4.3,419.1-4.4z"/>
	<path fill="#D9F7FC" d="M417.8,196.8c0-0.1,0.2-0.1,0.2,0s0.2,6.8,0.2,6.8s0.1,0.1,0.1,0s0.5-6.8,0.5-6.8s0.2-0.1,0.2,0
		s0.2,6.8,0.2,6.8s0.1,0.1,0.1,0c0.1-0.1,0.5-6.7,0.5-6.8s0.2-0.1,0.2,0c0,0.2,0.2,6.8,0.2,6.8s0.1,0.1,0.1,0
		c0.1-0.1,0.5-6.8,0.5-6.8c0.1-0.1,0.2,0,0.2,0s0.2,7.6,0.1,8.4s-1.3,1.6-1.3,1.8c-0.5,1.2,0.2,15.3,0.4,18.3
		c0.2,2.4-2.8,1.9-2.6,0.2c0.4-3,1.1-18.4,1.1-18.4s-1.3-1.3-1.4-2.1C417.3,204.6,417.8,196.9,417.8,196.8z"/>
	<path fill="#D9F7FC" d="M442.4,171c0,0.2-0.2,0.1-0.2,0c0-0.1-0.2-8.4-0.2-8.4s-0.1-0.1-0.1,0c-0.1,0.1-0.6,8.3-0.6,8.4
		c0,0.1-0.2,0.2-0.2,0c0-0.1-0.2-8.4-0.2-8.4s-0.1-0.1-0.1,0c-0.1,0.1-0.6,8.3-0.6,8.3c0,0.1-0.2,0.1-0.2,0c0-0.3-0.3-8.4-0.3-8.4
		s-0.1-0.1-0.1,0c-0.1,0.1-0.6,8.3-0.6,8.4c-0.1,0.2-0.2,0-0.2,0s-0.2-9.4-0.1-10.3c0.2-1,1.5-1.9,1.7-2.2
		c0.7-1.4-0.2-18.7-0.5-22.5c-0.2-2.9,3.5-2.4,3.2-0.2c-0.5,3.7-1.4,22.6-1.4,22.6s1.6,1.6,1.7,2.6C443,161.4,442.4,170.9,442.4,171
		z"/>
	<path fill="#DFE5E5" d="M485.8,171.3c0.2,0.2,0.2,0.2,0.2,0.3c0.1,0.2,0.2,0.4,0.4,0.7c0.5,1.2-0.3,16.4-0.4,18.6
		c-0.1,1.8,2.7,1.8,2.6,0.2c-0.4-3.1-1.7-17.3-1.1-18.5c0.2-0.5,0-0.7,0.7-1.2c1.3-1.3,3.1-10-1.4-10
		C482.2,161.3,484.9,171,485.8,171.3z"/>
	<path fill="#2E627C" d="M470.8,18.7c0.3,0.3,0.2,0.2,0.4,0.4c0.2,0.2,0.3,0.5,0.4,0.8c0.7,1.6-0.4,21.6-0.6,24.5
		c-0.1,2.4,3.6,2.3,3.5,0.2c-0.4-4.1-2.2-22.9-1.6-24.4c0.2-0.7,0-0.9,1-1.6c1.6-1.7,4.1-13.2-1.9-13.2
		C466.1,5.6,469.7,18.4,470.8,18.7z"/>
	<path fill="#BAD6D8" d="M462.1,54.5c-0.1-0.7-0.7-7.7-0.8-13.6c0.3-5.9-0.2-12.4-0.2-13.5c0-0.5-0.1-0.8-0.4-0.8l-0.1-0.1l0,0
		c-0.3-0.2-0.8,0-1.4,1c-1.3,2.3-1.6,9.5,0.2,13.2c0,0.1,0.1,0.1,0.1,0.2c0.4,1.7,0.1,12,0,13.6C459.3,56,462.2,56.1,462.1,54.5z"/>
	<path fill="#E4F5F9" d="M496.9,166c-0.1-0.7-0.7-7.7-0.8-13.6c0.3-5.9-0.2-12.4-0.2-13.5c0-0.5-0.1-0.8-0.4-0.8l-0.1-0.1l0,0
		c-0.3-0.2-0.8,0-1.4,1c-1.3,2.3-1.6,9.5,0.2,13.2c0,0.1,0.1,0.1,0.1,0.2c0.4,1.7,0.1,12,0,13.6C494.1,167.6,497,167.6,496.9,166z"
		/>
	<path fill="#5CB9D6" d="M451.4,61.8c0,0.1-0.2,0.1-0.2,0s-0.2-6.5-0.2-6.5s-0.1-0.1-0.1,0c-0.1,0.1-0.5,6.4-0.5,6.5s-0.2,0.1-0.2,0
		s-0.2-6.5-0.2-6.5s0-0.1-0.1,0s-0.5,6.4-0.5,6.5s-0.2,0.1-0.2,0c0-0.2-0.2-6.5-0.2-6.5s-0.1-0.1-0.1,0c-0.1,0.1-0.5,6.5-0.5,6.5
		c-0.1,0.1-0.2,0-0.2,0s-0.2-7.3-0.1-8s1.2-1.5,1.3-1.7c0.5-1.1-0.2-14.5-0.4-17.5c-0.2-2.3,2.7-1.9,2.5-0.1
		c-0.4,2.9-1.1,17.5-1.1,17.5s1.2,1.3,1.3,2C451.9,54.4,451.4,61.7,451.4,61.8z"/>
	<path fill="#D9F7FC" d="M452.2,157.4c0,0.1-0.2,0.1-0.2,0s-0.2-6.5-0.2-6.5s-0.1-0.1-0.1,0c-0.1,0.1-0.5,6.4-0.5,6.5
		s-0.2,0.1-0.2,0s-0.2-6.5-0.2-6.5s0-0.1-0.1,0s-0.5,6.4-0.5,6.5s-0.2,0.1-0.2,0c0-0.2-0.2-6.5-0.2-6.5s-0.1-0.1-0.1,0
		c-0.1,0.1-0.5,6.5-0.5,6.5c-0.1,0.1-0.2,0-0.2,0s-0.2-7.3-0.1-8c0.1-0.8,1.2-1.5,1.3-1.7c0.5-1.1-0.2-14.5-0.4-17.5
		c-0.2-2.3,2.7-1.9,2.5-0.1c-0.4,2.9-1.1,17.5-1.1,17.5s1.2,1.3,1.3,2C452.7,149.9,452.2,157.3,452.2,157.4z"/>
	<path fill="#2E627C" d="M449.7,8.5c0.2,0.2,0.2,0.2,0.2,0.2c0.1,0.2,0.2,0.4,0.3,0.5c0.5,1.1-0.2,14.5-0.4,16.5
		c-0.1,1.6,2.4,1.6,2.3,0.1c-0.3-2.8-1.4-15.4-1-16.5c0.2-0.5,0-0.6,0.7-1c1.1-1.1,2.8-8.9-1.3-8.8C446.5-0.4,448.9,8.2,449.7,8.5z"
		/>
	<path fill="#5CB9D6" d="M492.8,6.9c0.1,0.1,0.1,0.1,0.1,0.1c0.1,0.1,0.1,0.2,0.2,0.3c0.2,0.5-0.1,7.7-0.2,8.7
		c0,0.8,1.3,0.8,1.3,0.1c-0.2-1.4-0.8-8.2-0.5-8.7c0.1-0.2,0-0.3,0.4-0.5c0.6-0.6,1.4-4.7-0.7-4.7C491.1,2.2,492.4,6.8,492.8,6.9z"
		/>
	<path fill="#1C3A4D" d="M460.7-16.3c0-0.2,0.2-0.1,0.2,0s0.2,8.4,0.2,8.4s0.1,0.1,0.1,0c0.1-0.1,0.6-8.3,0.6-8.4
		c0-0.1,0.2-0.2,0.2,0c0,0.1,0.2,8.4,0.2,8.4s0.1,0.1,0.1,0c0.1-0.1,0.6-8.3,0.6-8.3c0-0.1,0.2-0.1,0.2,0c0,0.3,0.3,8.4,0.3,8.4
		s0.1,0.1,0.1,0c0.1-0.1,0.6-8.3,0.6-8.4c0.1-0.2,0.2,0,0.2,0s0.2,9.4,0.1,10.3c-0.2,1-1.5,1.9-1.7,2.2c-0.7,1.4,0.2,18.7,0.5,22.5
		c0.2,2.9-3.5,2.4-3.2,0.2c0.5-3.7,1.5-22.6,1.5-22.6s-1.6-1.6-1.7-2.6C460.1-6.7,460.7-16.2,460.7-16.3z"/>
	<path fill="#DFE5E5" d="M505.8,165.6c0.2,0.2,0.1,0.1,0.2,0.2c0.1,0.1,0.2,0.3,0.3,0.5c0.4,1-0.2,13.3-0.4,15.1
		c-0.1,1.5,2.2,1.4,2.2,0.1c-0.3-2.5-1.3-14.1-1-15.1c0.2-0.4,0-0.5,0.6-1c1-1,2.5-8.2-1.1-8.1C502.9,157.5,505.1,165.4,505.8,165.6
		z"/>
	<path fill="#DFE5E5" d="M512,36c0.2,0.2,0.2,0.2,0.3,0.3c0.1,0.2,0.2,0.4,0.4,0.7c0.6,1.3-0.3,17.6-0.5,19.9
		c-0.1,2,2.9,1.9,2.8,0.2c-0.4-3.3-1.8-18.6-1.3-19.9c0.2-0.6,0-0.7,0.8-1.3c1.3-1.4,3.3-10.8-1.6-10.7
		C508.2,25.3,511.1,35.7,512,36z"/>
	<path fill="#5CB9D6" d="M494.5,47.7c0-0.1,0.2-0.1,0.2,0s0.2,5.3,0.2,5.3s0.1,0.1,0.1,0s0.4-5.2,0.4-5.3s0.1-0.1,0.2,0
		c0,0.1,0.2,5.3,0.2,5.3s0,0.1,0.1,0s0.4-5.2,0.4-5.3s0.2-0.1,0.2,0c0,0.2,0.2,5.3,0.2,5.3s0.1,0.1,0.1,0s0.4-5.3,0.4-5.3
		c0.1-0.1,0.1,0,0.1,0s0.2,5.9,0.1,6.5s-1,1.2-1,1.4c-0.4,0.9,0.2,11.8,0.4,14.2c0.1,1.9-2.2,1.5-2,0.1c0.3-2.3,0.9-14.2,0.9-14.2
		s-1-1-1.1-1.6C494.1,53.8,494.5,47.7,494.5,47.7z"/>
	<path fill="#DFE5E5" d="M495.1,27.6c0.2,0.1,0.1,0.1,0.2,0.2s0.2,0.3,0.2,0.5c0.4,0.8-0.2,11.8-0.3,13.4c-0.1,1.3,2,1.3,1.9,0.1
		c-0.2-2.2-1.2-12.5-0.8-13.4c0.1-0.4,0-0.5,0.5-0.8c0.9-0.9,2.2-7.2-1-7.2C492.6,20.4,494.5,27.4,495.1,27.6z"/>
	<path fill="#5CB9D6" d="M525.2,21.6c0.1,0.1,0.1,0.1,0.1,0.1c0.1,0.1,0.1,0.1,0.1,0.2c0.2,0.5-0.1,6.3-0.2,7.1c0,0.7,1,0.7,1,0.1
		c-0.1-1.2-0.7-6.6-0.4-7.1c0.1-0.2,0-0.2,0.3-0.5c0.5-0.5,1.2-3.8-0.5-3.8C523.8,17.8,524.8,21.5,525.2,21.6z"/>
	<path fill="#1C3A4D" d="M504.1,7.5c0-0.1,0.2-0.1,0.2,0s0.2,6.8,0.2,6.8s0.1,0.1,0.1,0s0.5-6.8,0.5-6.8s0.2-0.1,0.2,0
		s0.2,6.8,0.2,6.8s0.1,0.1,0.1,0c0.1-0.1,0.5-6.7,0.5-6.8c0-0.1,0.2-0.1,0.2,0c0,0.2,0.2,6.8,0.2,6.8s0.1,0.1,0.1,0
		c0.1-0.1,0.5-6.8,0.5-6.8c0.1-0.1,0.2,0,0.2,0s0.2,7.6,0.1,8.4s-1.3,1.6-1.3,1.8c-0.5,1.2,0.2,15.3,0.4,18.3
		c0.2,2.4-2.8,1.9-2.6,0.2c0.4-3,1.1-18.4,1.1-18.4s-1.3-1.3-1.4-2.1C503.7,15.3,504.1,7.6,504.1,7.5z"/>
	<path fill="#D9F7FC" d="M553.2,131.5c0,0.2-0.2,0.1-0.2,0s-0.2-8.4-0.2-8.4s-0.1-0.1-0.1,0c-0.1,0.1-0.6,8.3-0.6,8.4
		s-0.2,0.2-0.2,0c0-0.1-0.2-8.4-0.2-8.4s-0.1-0.1-0.1,0s-0.6,8.3-0.6,8.3s-0.2,0.1-0.2,0c0-0.3-0.3-8.4-0.3-8.4s-0.1-0.1-0.1,0
		c-0.1,0.1-0.6,8.3-0.6,8.4c-0.1,0.2-0.2,0-0.2,0s-0.2-9.4-0.1-10.3c0.2-1,1.5-1.9,1.7-2.2c0.7-1.4-0.2-18.7-0.5-22.5
		c-0.2-2.9,3.5-2.4,3.2-0.2c-0.5,3.7-1.4,22.6-1.4,22.6s1.6,1.6,1.7,2.6C553.8,121.9,553.2,131.4,553.2,131.5z"/>
	<path fill="#DFE5E5" d="M557.9,151.8c0.2,0.2,0.2,0.2,0.2,0.3c0.1,0.2,0.2,0.4,0.4,0.7c0.5,1.2-0.3,16.4-0.4,18.6
		c-0.1,1.8,2.7,1.8,2.6,0.2c-0.4-3.1-1.7-17.3-1.1-18.5c0.2-0.5,0-0.7,0.7-1.2c1.3-1.3,3.1-10-1.4-10
		C554.4,141.8,557.1,151.5,557.9,151.8z"/>
	<path fill="#DFE5E5" d="M569,53.3c-0.1-0.7-0.7-7.7-0.8-13.6c0.3-5.9-0.2-12.4-0.2-13.5c0-0.5-0.1-0.8-0.4-0.8l-0.1-0.1l0,0
		c-0.3-0.2-0.8,0-1.4,1c-1.3,2.3-1.6,9.5,0.2,13.2c0,0.1,0.1,0.1,0.1,0.2c0.4,1.7,0.1,12,0,13.6C566.2,54.9,569.1,55,569,53.3z"/>
	<path fill="#075280" d="M523.7-16.6c0.3,0.3,0.2,0.2,0.4,0.4c0.2,0.2,0.3,0.5,0.4,0.8c0.7,1.6-0.4,21.6-0.6,24.5
		c-0.1,2.4,3.6,2.3,3.5,0.2c-0.4-4.1-2.2-22.9-1.6-24.4c0.2-0.7,0-0.9,1-1.6c1.6-1.7,4.1-13.2-1.9-13.2
		C519-29.8,522.5-17,523.7-16.6z"/>
	<path fill="#D9F7FC" d="M547.5,171.8c0,0.1-0.2,0.1-0.2,0s-0.2-6.5-0.2-6.5s-0.1-0.1-0.1,0c-0.1,0.1-0.5,6.4-0.5,6.5
		s-0.2,0.1-0.2,0s-0.2-6.5-0.2-6.5s0-0.1-0.1,0c-0.1,0.1-0.5,6.4-0.5,6.5s-0.2,0.1-0.2,0c0-0.2-0.2-6.5-0.2-6.5s-0.1-0.1-0.1,0
		c-0.1,0.1-0.5,6.5-0.5,6.5c-0.1,0.1-0.2,0-0.2,0s-0.2-7.3-0.1-8c0.1-0.8,1.2-1.5,1.3-1.7c0.5-1.1-0.2-14.5-0.4-17.5
		c-0.2-2.3,2.7-1.9,2.5-0.1c-0.4,2.9-1.1,17.5-1.1,17.5s1.2,1.3,1.3,2C548,164.4,547.5,171.7,547.5,171.8z"/>
	<path fill="#DFE5E5" d="M532.8,20.5c0.2,0.2,0.2,0.2,0.2,0.2c0.1,0.2,0.2,0.4,0.3,0.5c0.5,1.1-0.2,14.5-0.4,16.5
		c-0.1,1.6,2.4,1.6,2.3,0.1c-0.3-2.8-1.4-15.4-1-16.5c0.2-0.5,0-0.6,0.7-1c1.1-1.1,2.8-8.9-1.3-8.8C529.6,11.7,532,20.3,532.8,20.5z
		"/>
	<path fill="#5CB9D6" d="M557.7,4.3c0.1,0.1,0.1,0.1,0.1,0.1s0.1,0.2,0.2,0.3c0.2,0.5-0.1,7.7-0.2,8.7c0,0.8,1.3,0.8,1.3,0.1
		c-0.2-1.4-0.8-8.2-0.5-8.7c0.1-0.2,0-0.3,0.4-0.5c0.6-0.6,1.4-4.7-0.7-4.7C556-0.4,557.4,4.1,557.7,4.3z"/>
	<path fill="#5CB9D6" d="M545.8-4.3c0-0.2,0.2-0.1,0.2,0s0.2,8.4,0.2,8.4s0.1,0.1,0.1,0s0.6-8.3,0.6-8.4c0-0.1,0.2-0.2,0.2,0
		c0,0.1,0.2,8.4,0.2,8.4s0.1,0.1,0.1,0s0.6-8.3,0.6-8.3c0-0.1,0.2-0.1,0.2,0c0,0.3,0.3,8.4,0.3,8.4s0.1,0.1,0.1,0
		c0.1-0.1,0.6-8.3,0.6-8.4c0.1-0.2,0.2,0,0.2,0S550,5,549.8,6c-0.2,1-1.5,1.9-1.7,2.2c-0.7,1.4,0.2,18.7,0.5,22.5
		c0.2,2.9-3.5,2.4-3.2,0.2c0.5-3.7,1.4-22.6,1.4-22.6s-1.6-1.6-1.7-2.6C545.2,5.3,545.8-4.2,545.8-4.3z"/>
	<path fill="#D9F7FC" d="M585.3,131.2c0,0.1-0.2,0.1-0.2,0c0-0.1-0.2-6.8-0.2-6.8s-0.1-0.1-0.1,0c-0.1,0.1-0.5,6.8-0.5,6.8
		c0,0.1-0.2,0.1-0.2,0c0-0.1-0.2-6.8-0.2-6.8s-0.1-0.1-0.1,0c-0.1,0.1-0.5,6.7-0.5,6.8s-0.2,0.1-0.2,0c0-0.2-0.2-6.8-0.2-6.8
		s-0.1-0.1-0.1,0s-0.5,6.8-0.5,6.8c-0.1,0.1-0.2,0-0.2,0s-0.2-7.6-0.1-8.4s1.3-1.6,1.3-1.8c0.5-1.2-0.2-15.3-0.4-18.3
		c-0.2-2.4,2.8-1.9,2.6-0.2c-0.4,3-1.1,18.4-1.1,18.4s1.3,1.3,1.4,2.1C585.8,123.4,585.3,131,585.3,131.2z"/>
	<path fill="#2E627C" d="M593.5,65.2c-0.1-0.8-0.9-8.8-1.1-15.4c0.5-6.7-0.2-14.1-0.1-15.3c0.1-0.5-0.2-0.9-0.5-1
		c-0.1-0.1-0.1-0.1-0.1-0.1l0,0c-0.5-0.2-1.3,0.1-2,1.1c-1.9,2.6-2.4,10.8,0.1,14.9c0.1,0.1,0.1,0.1,0.1,0.2
		c0.6,2,0.1,13.5-0.1,15.4C589.4,66.9,593.6,67,593.5,65.2z"/>
	<path fill="#2E627C" d="M571.2,10.7c0.2,0.2,0.1,0.1,0.2,0.2c0.1,0.1,0.2,0.3,0.3,0.5c0.4,1-0.2,13.3-0.4,15.1
		c-0.1,1.5,2.2,1.4,2.2,0.1c-0.3-2.5-1.3-14.1-1-15.1c0.2-0.4,0-0.5,0.6-1c1-1,2.5-8.2-1.1-8.1C568.3,2.6,570.5,10.5,571.2,10.7z"/>
	<path fill="#2E627C" d="M595.6,20c0.2,0.2,0.2,0.2,0.3,0.3c0.1,0.2,0.2,0.4,0.4,0.7c0.6,1.3-0.3,17.6-0.5,19.9
		c-0.1,2,2.9,1.9,2.8,0.2c-0.4-3.3-1.8-18.6-1.3-19.9c0.2-0.6,0-0.7,0.8-1.3c1.3-1.4,3.3-10.8-1.6-10.7
		C591.8,9.3,594.7,19.6,595.6,20z"/>
	<path fill="#5CB9D6" d="M579,32.4c0-0.1,0.2-0.1,0.2,0s0.2,5.3,0.2,5.3s0.1,0.1,0.1,0s0.4-5.2,0.4-5.3s0.1-0.1,0.2,0
		c0,0.1,0.2,5.3,0.2,5.3s0,0.1,0.1,0s0.4-5.2,0.4-5.3s0.2-0.1,0.2,0c0,0.2,0.2,5.3,0.2,5.3s0.1,0.1,0.1,0s0.4-5.3,0.4-5.3
		c0.1-0.1,0.1,0,0.1,0s0.2,5.9,0.1,6.5s-1,1.2-1,1.4c-0.4,0.9,0.2,11.8,0.4,14.2c0.1,1.9-2.2,1.5-2,0.1c0.3-2.3,0.9-14.2,0.9-14.2
		s-1-1-1.1-1.6C578.6,38.5,579,32.5,579,32.4z"/>
	<path fill="#075280" d="M579.6,12.3c0.2,0.1,0.1,0.1,0.2,0.2c0.1,0.1,0.2,0.3,0.2,0.5c0.4,0.8-0.2,11.8-0.3,13.4
		c-0.1,1.3,2,1.3,1.9,0.1c-0.2-2.2-1.2-12.5-0.8-13.4c0.1-0.4,0-0.5,0.5-0.8c0.9-0.9,2.2-7.2-1-7.2C577.1,5.2,579,12.1,579.6,12.3z"
		/>
	<path fill="#2E627C" d="M588.6-7.7c0-0.1,0.2-0.1,0.2,0s0.2,6.8,0.2,6.8s0.1,0.1,0.1,0c0.1-0.1,0.5-6.8,0.5-6.8
		c0-0.1,0.2-0.1,0.2,0s0.2,6.8,0.2,6.8s0.1,0.1,0.1,0c0.1-0.1,0.5-6.7,0.5-6.8c0-0.1,0.2-0.1,0.2,0c0,0.2,0.2,6.8,0.2,6.8
		s0.1,0.1,0.1,0s0.5-6.8,0.5-6.8c0.1-0.1,0.2,0,0.2,0s0.2,7.6,0.1,8.4c-0.1,0.8-1.3,1.6-1.3,1.8c-0.5,1.2,0.2,15.3,0.4,18.3
		c0.2,2.4-2.8,1.9-2.6,0.2c0.4-3,1.1-18.4,1.1-18.4s-1.3-1.3-1.4-2.1C588.1,0.1,588.6-7.7,588.6-7.7z"/>
	<path fill="#D9F7FC" d="M583.7,342.9c0-0.1,0.2-0.1,0.2,0s0.2,6.8,0.2,6.8s0.1,0.1,0.1,0c0-0.1,0.5-6.8,0.5-6.8s0.2-0.1,0.2,0
		s0.2,6.8,0.2,6.8s0.1,0.1,0.1,0c0.1-0.1,0.5-6.7,0.5-6.8s0.2-0.1,0.2,0c0,0.2,0.2,6.8,0.2,6.8s0.1,0.1,0.1,0
		c0.1-0.1,0.5-6.8,0.5-6.8c0.1-0.1,0.2,0,0.2,0s0.2,7.6,0.1,8.4c-0.1,0.8-1.3,1.6-1.3,1.8c-0.5,1.2,0.2,15.3,0.4,18.3
		c0.2,2.4-2.8,1.9-2.6,0.2c0.4-3,1.1-18.4,1.1-18.4s-1.3-1.3-1.4-2.1C583.2,350.7,583.7,343,583.7,342.9z"/>
	<path fill="#D9F7FC" d="M171,542.7c0,0.2-0.2,0.1-0.2,0s-0.2-8.4-0.2-8.4s-0.1-0.1-0.1,0c-0.1,0.1-0.6,8.3-0.6,8.4s-0.2,0.2-0.2,0
		c0-0.1-0.2-8.4-0.2-8.4s-0.1-0.1-0.1,0c-0.1,0.1-0.6,8.3-0.6,8.3s-0.2,0.1-0.2,0c0-0.3-0.3-8.4-0.3-8.4s-0.1-0.1-0.1,0
		c-0.1,0.1-0.6,8.3-0.6,8.4c-0.1,0.2-0.2,0-0.2,0s-0.2-9.4-0.1-10.3c0.2-1,1.5-1.9,1.7-2.2c0.7-1.4-0.2-18.7-0.5-22.5
		c-0.2-2.9,3.5-2.4,3.2-0.2c-0.5,3.7-1.4,22.6-1.4,22.6s1.6,1.6,1.7,2.6C171.6,533.1,171,542.5,171,542.7z"/>
	<path fill="#5CB9D6" d="M209.6,188.1c0.1,0.1,0.1,0.1,0.1,0.1c0.1,0.1,0.1,0.1,0.1,0.2c0.2,0.5-0.1,6.3-0.2,7.1c0,0.7,1,0.7,1,0.1
		c-0.1-1.2-0.7-6.6-0.4-7.1c0.1-0.2,0-0.2,0.3-0.5c0.5-0.5,1.2-3.8-0.5-3.8C208.3,184.3,209.3,188,209.6,188.1z"/>
	<path fill="#D9F7FC" d="M161.6,305.5c0,0.1-0.2,0.1-0.2,0s-0.2-6.8-0.2-6.8s-0.1-0.1-0.1,0c-0.1,0.1-0.5,6.8-0.5,6.8
		c0,0.1-0.2,0.1-0.2,0s-0.2-6.8-0.2-6.8s-0.1-0.1-0.1,0c-0.1,0.1-0.5,6.7-0.5,6.8c0,0.1-0.2,0.1-0.2,0c0-0.2-0.2-6.8-0.2-6.8
		s-0.1-0.1-0.1,0c-0.1,0.1-0.5,6.8-0.5,6.8c-0.1,0.1-0.2,0-0.2,0s-0.2-7.6-0.1-8.4c0.1-0.8,1.3-1.6,1.3-1.8
		c0.5-1.2-0.2-15.3-0.4-18.3c-0.2-2.4,2.8-1.9,2.6-0.2c-0.4,3-1.1,18.4-1.1,18.4s1.3,1.3,1.4,2.1
		C162.1,297.7,161.6,305.5,161.6,305.5z"/>
	<path fill="#E4F5F9" d="M555.6,275.5c-0.1-0.5-0.5-6.3-0.7-11.1c0.2-4.8-0.2-10.1-0.1-11c0-0.4-0.1-0.7-0.3-0.7l-0.1-0.1l0,0
		c-0.2-0.2-0.7,0-1.1,0.8c-1,1.9-1.3,7.7,0.1,10.8c0,0.1,0.1,0.1,0.1,0.2c0.4,1.4,0.1,9.7,0,11.1
		C553.4,276.7,555.7,276.7,555.6,275.5z"/>
	<path fill="#5CB9D6" d="M503.8,255.6c0-0.1,0.2-0.1,0.2,0s0.2,5.3,0.2,5.3s0.1,0.1,0.1,0s0.4-5.2,0.4-5.3s0.1-0.1,0.2,0
		c0,0.1,0.2,5.3,0.2,5.3s0,0.1,0.1,0s0.4-5.2,0.4-5.3s0.2-0.1,0.2,0c0,0.2,0.2,5.3,0.2,5.3s0.1,0.1,0.1,0s0.4-5.3,0.4-5.3
		c0.1-0.1,0.1,0,0.1,0s0.2,5.9,0.1,6.5c-0.1,0.6-1,1.2-1,1.4c-0.4,0.9,0.2,11.8,0.4,14.2c0.1,1.9-2.2,1.5-2,0.1
		c0.3-2.3,0.9-14.2,0.9-14.2s-1-1-1.1-1.6C503.4,261.7,503.8,255.7,503.8,255.6z"/>
	<path fill="#D9F7FC" d="M409.9,256.1c0,0.2-0.2,0.1-0.2,0s-0.2-8.4-0.2-8.4s-0.1-0.1-0.1,0s-0.6,8.3-0.6,8.4s-0.2,0.2-0.2,0
		c0-0.1-0.2-8.4-0.2-8.4s-0.1-0.1-0.1,0s-0.6,8.3-0.6,8.3c0,0.1-0.2,0.1-0.2,0c0-0.3-0.3-8.4-0.3-8.4s-0.1-0.1-0.1,0
		c-0.1,0.1-0.6,8.3-0.6,8.4c-0.1,0.2-0.2,0-0.2,0s-0.2-9.4-0.1-10.3c0.2-1,1.5-1.9,1.7-2.2c0.7-1.4-0.2-18.7-0.5-22.5
		c-0.2-2.9,3.5-2.4,3.2-0.2c-0.5,3.7-1.4,22.6-1.4,22.6s1.6,1.6,1.7,2.6C410.5,246.5,409.9,256,409.9,256.1z"/>
	<path fill="#E4F5F9" d="M568.2,268.5c-0.1-0.7-0.7-7.7-0.8-13.6c0.3-5.9-0.2-12.4-0.2-13.5c0-0.5-0.1-0.8-0.4-0.8l-0.1-0.1l0,0
		c-0.3-0.2-0.8,0-1.4,1c-1.3,2.3-1.6,9.5,0.2,13.2c0,0.1,0.1,0.1,0.1,0.2c0.4,1.7,0.1,12,0,13.6C565.4,270,568.3,270.1,568.2,268.5z
		"/>
	<path fill="#D9F7FC" d="M555,203.5c0-0.2,0.2-0.1,0.2,0s0.2,8.4,0.2,8.4s0.1,0.1,0.1,0c0.1-0.1,0.6-8.3,0.6-8.4
		c0-0.1,0.2-0.2,0.2,0c0,0.1,0.2,8.4,0.2,8.4s0.1,0.1,0.1,0c0.1-0.1,0.6-8.3,0.6-8.3c0-0.1,0.2-0.1,0.2,0c0,0.3,0.3,8.4,0.3,8.4
		s0.1,0.1,0.1,0c0.1-0.1,0.6-8.3,0.6-8.4c0.1-0.2,0.2,0,0.2,0s0.2,9.4,0.1,10.3c-0.2,1-1.5,1.9-1.7,2.2c-0.7,1.4,0.2,18.7,0.5,22.5
		c0.2,2.9-3.5,2.4-3.2,0.2c0.5-3.7,1.4-22.6,1.4-22.6s-1.6-1.6-1.7-2.6C554.4,213.2,555,203.7,555,203.5z"/>
	<path fill="#D9F7FC" d="M496.3,315.3c0,0.1-0.2,0.1-0.2,0s-0.2-6.8-0.2-6.8s-0.1-0.1-0.1,0s-0.5,6.8-0.5,6.8c0,0.1-0.2,0.1-0.2,0
		s-0.2-6.8-0.2-6.8s-0.1-0.1-0.1,0c-0.1,0.1-0.5,6.7-0.5,6.8s-0.2,0.1-0.2,0c0-0.2-0.2-6.8-0.2-6.8s-0.1-0.1-0.1,0
		c-0.1,0.1-0.5,6.8-0.5,6.8c-0.1,0.1-0.2,0-0.2,0s-0.2-7.6-0.1-8.4s1.3-1.6,1.3-1.8c0.5-1.2-0.2-15.3-0.4-18.3
		c-0.2-2.4,2.8-1.9,2.6-0.2c-0.4,3-1.1,18.4-1.1,18.4s1.3,1.3,1.4,2.1C496.7,307.5,496.3,315.3,496.3,315.3z"/>
	<path fill="#D9F7FC" d="M560.4,278.4c0-0.1,0.2-0.1,0.2,0s0.2,6.8,0.2,6.8s0.1,0.1,0.1,0c0.1-0.1,0.5-6.8,0.5-6.8
		c0-0.1,0.2-0.1,0.2,0s0.2,6.8,0.2,6.8s0.1,0.1,0.1,0s0.5-6.7,0.5-6.8s0.2-0.1,0.2,0c0,0.2,0.2,6.8,0.2,6.8s0.1,0.1,0.1,0
		s0.5-6.8,0.5-6.8c0.1-0.1,0.2,0,0.2,0s0.2,7.6,0.1,8.4c-0.1,0.8-1.3,1.6-1.3,1.8c-0.5,1.2,0.2,15.3,0.4,18.3
		c0.2,2.4-2.8,1.9-2.6,0.2c0.4-3,1.1-18.4,1.1-18.4s-1.3-1.3-1.4-2.1C560,286.2,560.4,278.5,560.4,278.4z"/>
	<path fill="#D9F7FC" d="M437.2,334.3c0-0.1,0.2-0.1,0.2,0s0.2,6.8,0.2,6.8s0.1,0.1,0.1,0c0.1-0.1,0.5-6.8,0.5-6.8s0.2-0.1,0.2,0
		s0.2,6.8,0.2,6.8s0.1,0.1,0.1,0c0.1-0.1,0.5-6.7,0.5-6.8c0-0.1,0.2-0.1,0.2,0c0,0.2,0.2,6.8,0.2,6.8s0.1,0.1,0.1,0
		c0.1-0.1,0.5-6.8,0.5-6.8c0.1-0.1,0.2,0,0.2,0s0.2,7.6,0.1,8.4s-1.3,1.6-1.3,1.8c-0.5,1.2,0.2,15.3,0.4,18.3
		c0.2,2.4-2.8,1.9-2.6,0.2c0.4-3,1.1-18.4,1.1-18.4s-1.3-1.3-1.4-2.1C436.7,342.1,437.2,334.4,437.2,334.3z"/>
	<path fill="#D9F7FC" d="M495.4,268.2c0,0.2-0.2,0.1-0.2,0s-0.2-8.4-0.2-8.4s-0.1-0.1-0.1,0c-0.1,0.1-0.6,8.3-0.6,8.4
		s-0.2,0.2-0.2,0c0-0.1-0.2-8.4-0.2-8.4s-0.1-0.1-0.1,0s-0.6,8.3-0.6,8.3c0,0.1-0.2,0.1-0.2,0c0-0.3-0.3-8.4-0.3-8.4s-0.1-0.1-0.1,0
		s-0.6,8.3-0.6,8.4c-0.1,0.2-0.2,0-0.2,0s-0.2-9.4-0.1-10.3c0.2-1,1.5-1.9,1.7-2.2c0.7-1.4-0.2-18.7-0.5-22.5
		c-0.2-2.9,3.5-2.4,3.2-0.2c-0.5,3.7-1.4,22.6-1.4,22.6s1.6,1.6,1.7,2.6C496,258.6,495.4,268.1,495.4,268.2z"/>
	<path fill="#D9F7FC" d="M231.8,289.1c0-0.2,0.2-0.1,0.2,0s0.2,8.4,0.2,8.4s0.1,0.1,0.1,0c0.1-0.1,0.6-8.3,0.6-8.4s0.2-0.2,0.2,0
		c0,0.1,0.2,8.4,0.2,8.4s0.1,0.1,0.1,0s0.6-8.3,0.6-8.3c0-0.1,0.2-0.1,0.2,0c0,0.3,0.3,8.4,0.3,8.4s0.1,0.1,0.1,0s0.6-8.3,0.6-8.4
		c0.1-0.2,0.2,0,0.2,0s0.2,9.4,0.1,10.3s-1.5,1.9-1.7,2.2c-0.7,1.4,0.2,18.7,0.5,22.5c0.2,2.9-3.5,2.4-3.2,0.2
		c0.5-3.7,1.4-22.6,1.4-22.6s-1.6-1.6-1.7-2.6C231.1,298.7,231.8,289.2,231.8,289.1z"/>
	<path fill="#2E627C" d="M437,580.9c0.2,0.2,0.1,0.1,0.2,0.2c0.1,0.1,0.2,0.3,0.3,0.5c0.4,1-0.2,13.3-0.4,15.1
		c-0.1,1.5,2.2,1.4,2.2,0.1c-0.3-2.5-1.3-14.1-1-15.1c0.2-0.4,0-0.5,0.6-1c1-1,2.5-8.2-1.1-8.1C434.1,572.8,436.3,580.7,437,580.9z"
		/>
	<path fill="#5CB9D6" d="M579.1,542.2C579.1,542.1,579.2,542.1,579.1,542.2c0.1,0.1,0.2,3.6,0.2,3.6s0,0,0.1,0
		c0-0.1,0.2-3.5,0.2-3.6s0.1-0.1,0.1,0s0.1,3.6,0.1,3.6s0,0.1,0.1,0c0-0.1,0.2-3.5,0.2-3.6s0.1-0.1,0.1,0s0.1,3.6,0.1,3.6
		s0,0.1,0.1,0s0.2-3.6,0.2-3.6c0.1-0.1,0.1,0,0.1,0s0.1,4,0,4.4s-0.7,0.8-0.7,1c-0.3,0.6,0.1,8,0.2,9.7c0.1,1.3-1.5,1-1.4,0.1
		c0.2-1.6,0.6-9.7,0.6-9.7s-0.7-0.7-0.7-1.1C578.9,546.4,579.1,542.3,579.1,542.2z"/>
	<path fill="#DFE5E5" d="M442.2,385.2c0.2,0.2,0.2,0.2,0.3,0.3c0.1,0.2,0.2,0.4,0.4,0.7c0.6,1.3-0.3,17.6-0.5,19.9
		c-0.1,2,2.9,1.9,2.8,0.2c-0.4-3.3-1.8-18.6-1.3-19.9c0.2-0.6,0-0.7,0.8-1.3c1.3-1.4,3.3-10.8-1.6-10.7
		C438.4,374.6,441.3,384.9,442.2,385.2z"/>
	<path fill="#045080" d="M446.5,605c-0.1-0.5-0.5-6.3-0.7-11.1c0.2-4.8-0.2-10.1-0.1-11c0-0.4-0.1-0.7-0.3-0.7l-0.1-0.1l0,0
		c-0.2-0.2-0.7,0-1.1,0.8c-1,1.9-1.3,7.7,0.1,10.8c0,0.1,0.1,0.1,0.1,0.2c0.4,1.4,0.1,9.7,0,11.1C444.4,606.2,446.6,606.3,446.5,605
		z"/>
	<path fill="#3F8099" d="M429.6,607.1c-0.1-0.9-0.9-10.6-1.1-18.6c0.4-8.1-0.3-17.1-0.2-18.5c0-0.7-0.2-1.1-0.5-1.2
		c-0.1-0.1-0.1-0.1-0.1-0.1l0,0c-0.4-0.3-1.2,0.1-1.9,1.3c-1.7,3.2-2.2,13.1,0.2,18.1c0.1,0.1,0.1,0.2,0.1,0.3
		c0.6,2.4,0.2,16.4,0,18.6C425.8,609.2,429.8,609.3,429.6,607.1z"/>
	<path fill="#5CB9D6" d="M248.1,327c0-0.1,0.2-0.1,0.2,0s0.2,5.3,0.2,5.3s0.1,0.1,0.1,0s0.4-5.2,0.4-5.3c0.1-0.1,0.1-0.1,0.2,0
		c0,0.1,0.2,5.3,0.2,5.3s0,0.1,0.1,0s0.4-5.2,0.4-5.3c0-0.1,0.2-0.1,0.2,0c0,0.2,0.2,5.3,0.2,5.3s0.1,0.1,0.1,0s0.4-5.3,0.4-5.3
		c0.1-0.1,0.1,0,0.1,0s0.2,5.9,0.1,6.5s-1,1.2-1,1.4c-0.4,0.9,0.2,11.8,0.4,14.2c0.1,1.9-2.2,1.5-2,0.1c0.3-2.3,0.9-14.2,0.9-14.2
		s-1-1-1.1-1.6C247.7,333.1,248.1,327.2,248.1,327z"/>
	<path fill="#1C3A4D" d="M418.6,595.3c0,0.1-0.2,0.1-0.2,0s-0.2-5.3-0.2-5.3s-0.1-0.1-0.1,0s-0.4,5.2-0.4,5.3
		c-0.1,0.1-0.1,0.1-0.2,0c0-0.1-0.2-5.3-0.2-5.3s0-0.1-0.1,0s-0.4,5.2-0.4,5.3s-0.2,0.1-0.2,0c0-0.2-0.2-5.3-0.2-5.3s-0.1-0.1-0.1,0
		s-0.4,5.3-0.4,5.3c-0.1,0.1-0.1,0-0.1,0s-0.2-5.9-0.1-6.5s1-1.2,1-1.4c0.4-0.9-0.2-11.8-0.4-14.2c-0.1-1.9,2.2-1.5,2-0.1
		c-0.3,2.3-0.9,14.2-0.9,14.2s1,1,1.1,1.6C419,589.2,418.6,595.2,418.6,595.3z"/>
	<path fill="#075280" d="M406.6,596.1c0.2,0.1,0.1,0.1,0.2,0.2s0.2,0.3,0.2,0.5c0.4,0.8-0.2,11.8-0.3,13.4c-0.1,1.3,2,1.3,1.9,0.1
		c-0.2-2.2-1.2-12.5-0.8-13.4c0.1-0.4,0-0.5,0.5-0.8c0.9-0.9,2.2-7.2-1-7.2C404,588.9,406,595.9,406.6,596.1z"/>
	<path fill="#5CB9D6" d="M420.4,555.8c0.1,0.1,0.1,0.1,0.1,0.1c0.1,0.1,0.1,0.1,0.1,0.2c0.2,0.5-0.1,6.3-0.2,7.1c0,0.7,1,0.7,1,0.1
		c-0.1-1.2-0.7-6.6-0.4-7.1c0.1-0.2,0-0.2,0.3-0.5c0.5-0.5,1.2-3.8-0.5-3.8C419,552,420.1,555.7,420.4,555.8z"/>
	<path fill="#D9F7FC" d="M425,326.1c0-0.1,0.2-0.1,0.2,0s0.2,6.8,0.2,6.8s0.1,0.1,0.1,0s0.5-6.8,0.5-6.8c0-0.1,0.2-0.1,0.2,0
		s0.2,6.8,0.2,6.8s0.1,0.1,0.1,0c0.1-0.1,0.5-6.7,0.5-6.8c0-0.1,0.2-0.1,0.2,0c0,0.2,0.2,6.8,0.2,6.8s0.1,0.1,0.1,0
		c0.1-0.1,0.5-6.8,0.5-6.8c0.1-0.1,0.2,0,0.2,0s0.2,7.6,0.1,8.4s-1.3,1.6-1.3,1.8c-0.5,1.2,0.2,15.3,0.4,18.3
		c0.2,2.4-2.8,1.9-2.6,0.2c0.4-3,1.1-18.4,1.1-18.4s-1.3-1.3-1.4-2.1C424.4,333.9,425,326.2,425,326.1z"/>
	<path fill="#D9F7FC" d="M474.2,577.8c0,0.2-0.2,0.1-0.2,0s-0.2-8.4-0.2-8.4s-0.1-0.1-0.1,0c-0.1,0.1-0.6,8.3-0.6,8.4
		s-0.2,0.2-0.2,0c0-0.1-0.2-8.4-0.2-8.4s-0.1-0.1-0.1,0c-0.1,0.1-0.6,8.3-0.6,8.3c0,0.1-0.2,0.1-0.2,0c0-0.3-0.3-8.4-0.3-8.4
		s-0.1-0.1-0.1,0c-0.1,0.1-0.6,8.3-0.6,8.4c-0.1,0.2-0.2,0-0.2,0s-0.2-9.4-0.1-10.3c0.2-1,1.5-1.9,1.7-2.2
		c0.7-1.4-0.2-18.7-0.5-22.5c-0.2-2.9,3.5-2.4,3.2-0.2c-0.5,3.7-1.4,22.6-1.4,22.6s1.6,1.6,1.7,2.6
		C474.8,568.2,474.2,577.7,474.2,577.8z"/>
	<path fill="#2E627C" d="M481.3,598.1c0.2,0.2,0.2,0.2,0.2,0.3c0.1,0.2,0.2,0.4,0.4,0.7c0.5,1.2-0.3,16.4-0.4,18.6
		c-0.1,1.8,2.7,1.8,2.6,0.2c-0.4-3.1-1.7-17.3-1.1-18.5c0.2-0.5,0-0.7,0.7-1.2c1.3-1.3,3.1-10-1.4-10
		C477.7,588.2,480.4,597.8,481.3,598.1z"/>
	<path fill="#5CB9D6" d="M491,549.3c0-0.2,0.3-0.2,0.3-0.1s0.8,10.2,0.8,10.2s0.1,0.1,0.1,0c0.1-0.1,0.2-10.2,0.2-10.2
		c0-0.1,0.2-0.2,0.3,0c0,0.2,0.8,10.2,0.8,10.2s0.1,0.1,0.1,0c0.1-0.1,0.2-10.1,0.2-10.2s0.3-0.2,0.3,0c0.1,0.4,0.9,10.2,0.9,10.2
		s0.1,0.1,0.1,0c0.1-0.1,0.2-10.2,0.2-10.3c0.1-0.2,0.3-0.1,0.3-0.1s0.9,11.4,0.7,12.6c-0.2,1.2-1.7,2.4-1.9,2.8
		c-0.7,1.8,1.4,22.8,2,27.3c0.5,3.5-4.1,3.1-3.9,0.4c0.4-4.6,0.4-27.5,0.4-27.5s-2-1.9-2.2-3C490.8,561,491,549.4,491,549.3z"/>
	<path fill="#1C3A4D" d="M458.7,615.8c0,0.1-0.2,0.1-0.2,0s-0.2-6.5-0.2-6.5s-0.1-0.1-0.1,0c-0.1,0.1-0.5,6.4-0.5,6.5
		s-0.2,0.1-0.2,0s-0.2-6.5-0.2-6.5s0-0.1-0.1,0s-0.5,6.4-0.5,6.5s-0.2,0.1-0.2,0c0-0.2-0.2-6.5-0.2-6.5s-0.1-0.1-0.1,0
		c-0.1,0.1-0.5,6.5-0.5,6.5c-0.1,0.1-0.2,0-0.2,0s-0.2-7.3-0.1-8c0.1-0.8,1.2-1.5,1.3-1.7c0.5-1.1-0.2-14.5-0.4-17.5
		c-0.2-2.3,2.7-1.9,2.5-0.1c-0.4,2.9-1.1,17.5-1.1,17.5s1.2,1.3,1.3,2C459.2,608.3,458.7,615.7,458.7,615.8z"/>
	<path fill="#5CB9D6" d="M492.4,331.6c0.1,0.1,0.1,0.1,0.1,0.1c0.1,0.1,0.1,0.2,0.2,0.3c0.2,0.5-0.1,7.7-0.2,8.7
		c0,0.8,1.3,0.8,1.3,0.1c-0.2-1.4-0.8-8.2-0.5-8.7c0.1-0.2,0-0.3,0.4-0.5c0.6-0.6,1.4-4.7-0.7-4.7
		C490.7,326.9,492,331.5,492.4,331.6z"/>
	<path fill="#D9F7FC" d="M514.2,576.5c0,0.1-0.2,0.1-0.2,0s-0.2-6.8-0.2-6.8s-0.1-0.1-0.1,0c-0.1,0.1-0.5,6.8-0.5,6.8
		c0,0.1-0.2,0.1-0.2,0s-0.2-6.8-0.2-6.8s-0.1-0.1-0.1,0s-0.5,6.7-0.5,6.8s-0.2,0.1-0.2,0c0-0.2-0.2-6.8-0.2-6.8s-0.1-0.1-0.1,0
		c-0.1,0.1-0.5,6.8-0.5,6.8c-0.1,0.1-0.2,0-0.2,0s-0.2-7.6-0.1-8.4c0.1-0.8,1.3-1.6,1.3-1.8c0.5-1.2-0.2-15.3-0.4-18.3
		c-0.2-2.4,2.8-1.9,2.6-0.2c-0.4,3-1.1,18.4-1.1,18.4s1.3,1.3,1.4,2.1C514.7,568.6,514.2,576.4,514.2,576.5z"/>
	<path fill="#2E627C" d="M522.1,592.9c0.2,0.2,0.1,0.1,0.2,0.2c0.1,0.1,0.2,0.3,0.3,0.5c0.4,1-0.2,13.3-0.4,15.1
		c-0.1,1.5,2.2,1.4,2.2,0.1c-0.3-2.5-1.3-14.1-1-15.1c0.2-0.4,0-0.5,0.6-1c1-1,2.5-8.2-1.1-8.1C519.2,584.7,521.4,592.6,522.1,592.9
		z"/>
	<path fill="#D9F7FC" d="M532.6,553c0-0.2,0.2-0.1,0.2,0s0.2,8.3,0.2,8.3s0.1,0.1,0.1,0c0.1-0.1,0.6-8.2,0.6-8.3s0.2-0.2,0.2,0
		c0,0.1,0.2,8.3,0.2,8.3s0.1,0.1,0.1,0c0.1-0.1,0.6-8.2,0.6-8.3s0.2-0.1,0.2,0c0,0.3,0.3,8.3,0.3,8.3s0.1,0.1,0.1,0
		c0.1-0.1,0.6-8.3,0.6-8.3c0.1-0.2,0.2,0,0.2,0s0.2,9.2,0.1,10.2c-0.2,1-1.5,1.9-1.6,2.2c-0.7,1.4,0.2,18.6,0.5,22.3
		c0.2,2.9-3.4,2.3-3.2,0.2c0.5-3.7,1.4-22.3,1.4-22.3s-1.5-1.6-1.7-2.5C532,562.5,532.6,553.1,532.6,553z"/>
	<path fill="#E4F5F9" d="M528.4,448.7c-0.1-0.5-0.5-6.3-0.7-11.1c0.2-4.8-0.2-10.1-0.1-11c0-0.4-0.1-0.7-0.3-0.7l-0.1-0.1l0,0
		c-0.2-0.2-0.7,0-1.1,0.8c-1,1.9-1.3,7.7,0.1,10.8c0,0.1,0.1,0.1,0.1,0.2c0.4,1.4,0.1,9.7,0,11.1C526.1,450,528.4,450.1,528.4,448.7
		z"/>
	<path fill="#045080" d="M531.6,616.9c-0.1-0.5-0.5-6.3-0.7-11.1c0.2-4.8-0.2-10.1-0.1-11c0-0.4-0.1-0.7-0.3-0.7l-0.1-0.1l0,0
		c-0.2-0.2-0.7,0-1.1,0.8c-1,1.9-1.3,7.7,0.1,10.8c0,0.1,0.1,0.1,0.1,0.2c0.4,1.4,0.1,9.7,0,11.1
		C529.4,618.2,531.7,618.2,531.6,616.9z"/>
	<path fill="#3F8099" d="M514.7,619c-0.1-0.9-0.9-10.6-1.1-18.6c0.4-8.1-0.3-17.1-0.2-18.5c0-0.7-0.2-1.1-0.5-1.2
		c-0.1-0.1-0.1-0.1-0.1-0.1l0,0c-0.4-0.3-1.2,0.1-1.9,1.3c-1.7,3.2-2.2,13.1,0.2,18.1c0.1,0.1,0.1,0.2,0.1,0.3
		c0.6,2.4,0.2,16.4,0,18.6C510.9,621.1,514.8,621.2,514.7,619z"/>
	<path fill="#5CB9D6" d="M521,391.1c0-0.1,0.2-0.1,0.2,0s0.2,5.3,0.2,5.3s0.1,0.1,0.1,0s0.4-5.2,0.4-5.3c0-0.1,0.1-0.1,0.2,0
		c0,0.1,0.2,5.3,0.2,5.3s0,0.1,0.1,0c0.1-0.1,0.4-5.2,0.4-5.3c0-0.1,0.2-0.1,0.2,0c0,0.2,0.2,5.3,0.2,5.3s0.1,0.1,0.1,0
		s0.4-5.3,0.4-5.3c0.1-0.1,0.1,0,0.1,0s0.2,5.9,0.1,6.5c-0.1,0.6-1,1.2-1,1.4c-0.4,0.9,0.2,11.8,0.4,14.2c0.1,1.9-2.2,1.5-2,0.1
		c0.3-2.3,0.9-14.2,0.9-14.2s-1-1-1.1-1.6C520.6,397.2,521,391.2,521,391.1z"/>
	<path fill="#5CB9D6" d="M503.7,607.2c0,0.1-0.2,0.1-0.2,0s-0.2-5.3-0.2-5.3s-0.1-0.1-0.1,0s-0.4,5.2-0.4,5.3s-0.1,0.1-0.2,0
		c0-0.1-0.2-5.3-0.2-5.3s0-0.1-0.1,0s-0.4,5.2-0.4,5.3s-0.2,0.1-0.2,0c0-0.2-0.2-5.3-0.2-5.3s-0.1-0.1-0.1,0s-0.4,5.3-0.4,5.3
		c-0.1,0.1-0.1,0-0.1,0s-0.2-5.9-0.1-6.5s1-1.2,1-1.4c0.4-0.9-0.2-11.8-0.4-14.2c-0.1-1.9,2.2-1.5,2-0.1c-0.3,2.3-0.9,14.2-0.9,14.2
		s1,1,1.1,1.6C504.1,601.1,503.7,607.1,503.7,607.2z"/>
	<path fill="#D9F7FC" d="M505.3,290.5c0-0.2,0.2-0.1,0.2,0s0.2,6.8,0.2,6.8s0.1,0.1,0.1,0c0.1-0.1,0.5-6.8,0.5-6.8s0.2-0.1,0.2,0
		s0.2,6.8,0.2,6.8s0.1,0.1,0.1,0s0.5-6.7,0.5-6.8s0.2-0.1,0.2,0c0,0.2,0.2,6.8,0.2,6.8s0.1,0.1,0.1,0c0.1-0.1,0.5-6.8,0.5-6.8
		c0.1-0.1,0.2,0,0.2,0s0.2,7.6,0.1,8.4s-1.3,1.6-1.3,1.8c-0.5,1.2,0.2,15.3,0.4,18.3c0.2,2.4-2.8,1.9-2.6,0.2
		c0.4-3,1.1-18.4,1.1-18.4s-1.3-1.3-1.4-2.1C504.8,298.3,505.3,290.6,505.3,290.5z"/>
	<path fill="#D9F7FC" d="M233.1,334.3c0-0.1,0.2-0.1,0.2,0s0.2,6.8,0.2,6.8s0.1,0.1,0.1,0c0.1-0.1,0.5-6.8,0.5-6.8
		c0-0.1,0.2-0.1,0.2,0s0.2,6.8,0.2,6.8s0.1,0.1,0.1,0c0.1-0.1,0.5-6.7,0.5-6.8c0-0.1,0.2-0.1,0.2,0c0,0.2,0.2,6.8,0.2,6.8
		s0.1,0.1,0.1,0c0.1-0.1,0.5-6.8,0.5-6.8c0.1-0.1,0.2,0,0.2,0s0.2,7.6,0.1,8.4c-0.1,0.8-1.3,1.6-1.3,1.8c-0.5,1.2,0.2,15.3,0.4,18.3
		c0.2,2.4-2.8,1.9-2.6,0.2c0.4-3,1.1-18.4,1.1-18.4s-1.3-1.3-1.4-2.1C232.6,342.2,233.1,334.4,233.1,334.3z"/>
	<path fill="#D9F7FC" d="M559.6,590c0,0.2-0.2,0.1-0.2,0s-0.2-8.4-0.2-8.4s-0.1-0.1-0.1,0c-0.1,0.1-0.6,8.3-0.6,8.4s-0.2,0.2-0.2,0
		c0-0.1-0.2-8.4-0.2-8.4s-0.1-0.1-0.1,0c-0.1,0.1-0.6,8.3-0.6,8.3s-0.2,0.1-0.2,0c0-0.3-0.3-8.4-0.3-8.4s-0.1-0.1-0.1,0
		c-0.1,0.1-0.6,8.3-0.6,8.4c-0.1,0.2-0.2,0-0.2,0s-0.2-9.4-0.1-10.3c0.2-1,1.5-1.9,1.7-2.2c0.7-1.4-0.2-18.7-0.5-22.5
		c-0.2-2.9,3.5-2.4,3.2-0.2c-0.5,3.7-1.4,22.6-1.4,22.6s1.6,1.6,1.7,2.6C560.2,580.4,559.6,589.8,559.6,590z"/>
	<path fill="#5CB9D6" d="M576,561.3c0-0.2,0.3-0.2,0.3-0.1s0.8,10.2,0.8,10.2s0.1,0.1,0.1,0c0.1-0.1,0.2-10.2,0.2-10.2
		c0-0.1,0.2-0.2,0.3,0c0,0.2,0.8,10.2,0.8,10.2s0.1,0.1,0.1,0s0.2-10.1,0.2-10.2s0.3-0.2,0.3,0c0.1,0.4,0.9,10.2,0.9,10.2
		s0.1,0.1,0.1,0c0.1-0.1,0.2-10.2,0.2-10.3c0.1-0.2,0.3-0.1,0.3-0.1s0.9,11.4,0.7,12.6c-0.2,1.2-1.7,2.4-1.9,2.8
		c-0.7,1.8,1.4,22.8,2,27.3c0.5,3.5-4.1,3.1-3.9,0.4c0.4-4.6,0.4-27.5,0.4-27.5s-2-1.9-2.2-3C575.9,573,576,561.4,576,561.3z"/>
	<path fill="#5CB9D6" d="M568,581.5c0-0.1,0.1-0.1,0.1,0s0.1,3.6,0.1,3.6s0,0,0.1,0c0-0.1,0.2-3.5,0.2-3.6s0.1-0.1,0.1,0
		s0.1,3.6,0.1,3.6s0,0.1,0.1,0c0.1-0.1,0.2-3.5,0.2-3.6s0.1-0.1,0.1,0s0.1,3.6,0.1,3.6s0,0.1,0.1,0c0-0.1,0.2-3.6,0.2-3.6
		c0.1-0.1,0.1,0,0.1,0s0.1,4,0,4.4c-0.1,0.4-0.7,0.8-0.7,1c-0.3,0.6,0.1,8,0.2,9.7c0.1,1.3-1.5,1-1.4,0.1c0.2-1.6,0.6-9.7,0.6-9.7
		s-0.7-0.7-0.7-1.1C567.7,585.6,568,581.6,568,581.5z"/>
	<path fill="#D9F7FC" d="M359.4,325.3c0,0.1-0.2,0.1-0.2,0s-0.2-6.8-0.2-6.8s-0.1-0.1-0.1,0s-0.5,6.8-0.5,6.8c0,0.1-0.2,0.1-0.2,0
		s-0.2-6.8-0.2-6.8s-0.1-0.1-0.1,0c-0.1,0.1-0.5,6.7-0.5,6.8c0,0.1-0.2,0.1-0.2,0c0-0.2-0.2-6.8-0.2-6.8s-0.1-0.1-0.1,0
		c-0.1,0.1-0.5,6.8-0.5,6.8c-0.1,0.1-0.2,0-0.2,0s-0.2-7.6-0.1-8.4s1.3-1.6,1.3-1.8c0.5-1.2-0.2-15.3-0.4-18.3
		c-0.2-2.4,2.8-1.9,2.6-0.2c-0.4,3-1.1,18.4-1.1,18.4s1.3,1.3,1.4,2.1C359.9,317.5,359.4,325.2,359.4,325.3z"/>
	<path fill="#2E627C" d="M549.4,578.1c0.2,0.2,0.1,0.1,0.2,0.2c0.1,0.1,0.2,0.3,0.3,0.5c0.4,1-0.2,13.3-0.4,15.1
		c-0.1,1.5,2.2,1.4,2.2,0.1c-0.3-2.5-1.3-14.1-1-15.1c0.2-0.4,0-0.5,0.6-1c1-1,2.5-8.2-1.1-8.1C546.5,570,548.7,577.9,549.4,578.1z"
		/>
	<path fill="#DFE5E5" d="M360.2,544.3c0.2,0.2,0.2,0.2,0.3,0.3c0.1,0.2,0.2,0.4,0.4,0.7c0.6,1.3-0.3,17.6-0.5,19.9
		c-0.1,2,2.9,1.9,2.8,0.2c-0.4-3.3-1.8-18.6-1.3-19.9c0.2-0.6,0-0.7,0.8-1.3c1.3-1.4,3.3-10.8-1.6-10.7
		C356.4,533.6,359.3,544,360.2,544.3z"/>
	<path fill="#3F8099" d="M599.2,603.7c-0.1-0.9-0.9-10.6-1.1-18.6c0.4-8.1-0.3-17.1-0.2-18.5c0-0.7-0.2-1.1-0.5-1.2
		c-0.1-0.1-0.1-0.1-0.1-0.1l0,0c-0.4-0.3-1.2,0.1-1.9,1.3c-1.7,3.2-2.2,13.1,0.2,18.1c0.1,0.1,0.1,0.2,0.1,0.3
		c0.6,2.4,0.2,16.4,0,18.6C595.4,605.9,599.3,605.9,599.2,603.7z"/>
	<path fill="#5CB9D6" d="M588.2,591.9c0,0.1-0.2,0.1-0.2,0s-0.2-5.3-0.2-5.3s-0.1-0.1-0.1,0s-0.4,5.2-0.4,5.3s-0.1,0.1-0.2,0
		c0-0.1-0.2-5.3-0.2-5.3s0-0.1-0.1,0s-0.4,5.2-0.4,5.3s-0.2,0.1-0.2,0c0-0.2-0.2-5.3-0.2-5.3s-0.1-0.1-0.1,0s-0.4,5.3-0.4,5.3
		c-0.1,0.1-0.1,0-0.1,0s-0.2-5.9-0.1-6.5s1-1.2,1-1.4c0.4-0.9-0.2-11.8-0.4-14.2c-0.1-1.9,2.2-1.5,2-0.1c-0.3,2.3-0.9,14.2-0.9,14.2
		s1,1,1.1,1.6C588.5,585.8,588.2,591.8,588.2,591.9z"/>
	<path fill="#075280" d="M481.6,568.8c0.2,0.1,0.1,0.1,0.2,0.2c0.1,0.1,0.2,0.3,0.2,0.5c0.4,0.8-0.2,11.8-0.3,13.4
		c-0.1,1.3,2,1.3,1.9,0.1c-0.2-2.2-1.2-12.5-0.8-13.4c0.1-0.4,0-0.5,0.5-0.8c0.9-0.9,2.2-7.2-1-7.2C479,561.6,481,568.6,481.6,568.8
		z"/>
	<path fill="#D9F7FC" d="M594.5,322.7c0-0.1,0.2-0.1,0.2,0s0.2,6.8,0.2,6.8s0.1,0.1,0.1,0c0.1-0.1,0.5-6.8,0.5-6.8s0.2-0.1,0.2,0
		s0.2,6.8,0.2,6.8s0.1,0.1,0.1,0c0.1-0.1,0.5-6.7,0.5-6.8c0-0.1,0.2-0.1,0.2,0c0,0.2,0.2,6.8,0.2,6.8s0.1,0.1,0.1,0s0.5-6.8,0.5-6.8
		c0.1-0.1,0.2,0,0.2,0s0.2,7.6,0.1,8.4c-0.1,0.8-1.3,1.6-1.3,1.8c-0.5,1.2,0.2,15.3,0.4,18.3c0.2,2.4-2.8,1.9-2.6,0.2
		c0.4-3,1.1-18.4,1.1-18.4s-1.3-1.3-1.4-2.1C594,330.5,594.5,322.8,594.5,322.7z"/>
	<path fill="#DFE5E5" d="M359.7,340.8c0.2,0.2,0.2,0.2,0.2,0.2c0.1,0.2,0.2,0.4,0.3,0.5c0.5,1.1-0.2,14.5-0.4,16.5
		c-0.1,1.6,2.4,1.6,2.3,0.1c-0.3-2.8-1.4-15.4-1-16.5c0.2-0.5,0-0.6,0.7-1c1.1-1.1,2.8-8.9-1.3-8.8
		C356.5,332,358.9,340.5,359.7,340.8z"/>
	<path fill="#5CB9D6" d="M372.1,354.7c0.1,0.1,0.1,0.1,0.1,0.1c0.1,0.1,0.1,0.2,0.2,0.3c0.2,0.5-0.1,7.7-0.2,8.7
		c0,0.8,1.3,0.8,1.3,0.1c-0.2-1.4-0.8-8.2-0.5-8.7c0.1-0.2,0-0.3,0.4-0.5c0.6-0.6,1.4-4.7-0.7-4.7
		C370.4,350,371.7,354.5,372.1,354.7z"/>
	<path fill="#5CB9D6" d="M174.3,397.7c0.1,0.1,0.1,0.1,0.1,0.1s0.1,0.1,0.1,0.2c0.2,0.5-0.1,6.3-0.2,7.1c0,0.7,1,0.7,1,0.1
		c-0.1-1.2-0.7-6.6-0.4-7.1c0.1-0.2,0-0.2,0.3-0.5c0.5-0.5,1.2-3.8-0.5-3.8C172.9,393.8,174,397.5,174.3,397.7z"/>
	<path fill="#DFE5E5" d="M148.5,317.9c-0.3-0.3-0.2-0.2-0.4-0.4c-0.2-0.2-0.3-0.5-0.4-0.8c-0.7-1.6,0.4-21.6,0.6-24.5
		c0.1-2.4-3.6-2.3-3.5-0.2c0.4,4.1,2.2,22.9,1.6,24.4c-0.2,0.7,0,0.9-1,1.6c-1.6,1.7-4.1,13.2,1.9,13.2
		C153.1,331,149.6,318.3,148.5,317.9z"/>
	<path fill="#CCDADD" d="M244.4,292.3c0.3,0.3,0.2,0.2,0.4,0.4c0.2,0.2,0.3,0.5,0.4,0.8c0.7,1.6-0.4,21.6-0.6,24.5
		c-0.1,2.4,3.6,2.3,3.5,0.2c-0.4-4.1-2.2-22.9-1.6-24.4c0.2-0.7,0-0.9,1-1.6c1.6-1.7,4.1-13.2-1.9-13.2
		C239.7,279.2,243.2,291.9,244.4,292.3z"/>
	<path fill="#5CB9D6" d="M159.6,377c0.1,0.1,0.1,0.1,0.1,0.1c0.1,0.1,0.1,0.2,0.2,0.3c0.2,0.5-0.1,7.7-0.2,8.7
		c0,0.8,1.3,0.8,1.3,0.1c-0.2-1.4-0.8-8.2-0.5-8.7c0.1-0.2,0-0.3,0.4-0.5c0.6-0.6,1.4-4.7-0.7-4.7
		C157.9,372.3,159.2,376.8,159.6,377z"/>
	<path fill="#DFE5E5" d="M167.4,375.4c0.2,0.2,0.2,0.2,0.2,0.2c0.1,0.2,0.2,0.4,0.3,0.5c0.5,1.1-0.2,14.5-0.4,16.5
		c-0.1,1.6,2.4,1.6,2.3,0.1c-0.3-2.8-1.4-15.4-1-16.5c0.2-0.5,0-0.6,0.7-1c1.1-1.1,2.8-8.9-1.3-8.8
		C164.3,366.6,166.7,375.1,167.4,375.4z"/>
	<path fill="#2E627C" d="M388.6,571.7c0.2,0.2,0.1,0.1,0.2,0.2s0.2,0.3,0.3,0.5c0.4,1-0.2,13.3-0.4,15.1c-0.1,1.5,2.2,1.4,2.2,0.1
		c-0.3-2.5-1.3-14.1-1-15.1c0.2-0.4,0-0.5,0.6-1c1-1,2.5-8.2-1.1-8.1C385.7,563.6,387.9,571.4,388.6,571.7z"/>
	<path fill="#DFE5E5" d="M237.1,550.8c0.2,0.2,0.2,0.2,0.3,0.3c0.1,0.2,0.2,0.4,0.4,0.7c0.6,1.3-0.3,17.6-0.5,19.9
		c-0.1,2,2.9,1.9,2.8,0.2c-0.4-3.3-1.8-18.6-1.3-19.9c0.2-0.6,0-0.7,0.8-1.3c1.3-1.4,3.3-10.8-1.6-10.7
		C233.2,540.1,236.1,550.5,237.1,550.8z"/>
	<path fill="#5CB9D6" d="M388.6,592.3c0-0.1,0.1-0.1,0.1,0s0.1,3.6,0.1,3.6s0,0,0.1,0c0-0.1,0.2-3.5,0.2-3.6s0.1-0.1,0.1,0
		s0.1,3.6,0.1,3.6s0,0.1,0.1,0s0.2-3.5,0.2-3.6s0.1-0.1,0.1,0s0.1,3.6,0.1,3.6s0,0.1,0.1,0c0-0.1,0.2-3.6,0.2-3.6
		c0.1-0.1,0.1,0,0.1,0s0.1,4,0,4.4s-0.7,0.8-0.7,1c-0.3,0.6,0.1,8,0.2,9.7c0.1,1.3-1.5,1-1.4,0.1c0.2-1.6,0.6-9.7,0.6-9.7
		s-0.7-0.7-0.7-1.1C388.3,596.4,388.6,592.3,388.6,592.3z"/>
	<path fill="#E4F5F9" d="M250.1,569.5c-0.1-0.5-0.5-6.3-0.7-11.1c0.2-4.8-0.2-10.1-0.1-11c0-0.4-0.1-0.7-0.3-0.7l-0.1-0.1l0,0
		c-0.2-0.2-0.7,0-1.1,0.8c-1,1.9-1.3,7.7,0.1,10.8c0,0.1,0.1,0.1,0.1,0.2c0.4,1.4,0.1,9.7,0,11.1
		C247.9,570.8,250.2,570.8,250.1,569.5z"/>
	<path fill="#1C3A4D" d="M244.5,583.6c0.2,0.2,0.2,0.2,0.3,0.3c0.1,0.2,0.2,0.4,0.4,0.7c0.6,1.3-0.3,17.6-0.5,19.9
		c-0.1,2,2.9,1.9,2.8,0.2c-0.4-3.3-1.8-18.6-1.3-19.9c0.2-0.6,0-0.7,0.8-1.3c1.3-1.4,3.3-10.8-1.6-10.7
		C240.7,572.9,243.5,583.3,244.5,583.6z"/>
	<path fill="#045080" d="M398.1,595.7c-0.1-0.5-0.5-6.3-0.7-11.1c0.2-4.8-0.2-10.1-0.1-11c0-0.4-0.1-0.7-0.3-0.7l-0.1-0.1l0,0
		c-0.2-0.2-0.7,0-1.1,0.8c-1,1.9-1.3,7.7,0.1,10.8c0,0.1,0.1,0.1,0.1,0.2c0.4,1.4,0.1,9.7,0,11.1C395.9,597,398.3,597.1,398.1,595.7
		z"/>
	<path fill="#3F8099" d="M381.2,597.9c-0.1-0.9-0.9-10.6-1.1-18.6c0.4-8.1-0.3-17.1-0.2-18.5c0-0.7-0.2-1.1-0.5-1.2
		c-0.1-0.1-0.1-0.1-0.1-0.1l0,0c-0.4-0.3-1.2,0.1-1.9,1.3c-1.7,3.2-2.2,13.1,0.2,18.1c0.1,0.1,0.1,0.2,0.1,0.3
		c0.6,2.4,0.2,16.4,0,18.6C377.4,600,381.4,600.1,381.2,597.9z"/>
	<path fill="#3F8099" d="M231,595.2c-0.1-1-0.9-10.9-1.2-19.1c0.4-8.3-0.3-17.5-0.2-18.9c0-0.7-0.2-1.1-0.5-1.2
		c-0.1-0.1-0.1-0.1-0.1-0.1l0,0c-0.4-0.3-1.2,0.1-1.9,1.3c-1.7,3.3-2.2,13.4,0.2,18.5c0.1,0.1,0.1,0.2,0.1,0.3
		c0.6,2.4,0.2,16.8,0,19C227.1,597.4,231.1,597.4,231,595.2z"/>
	<path fill="#2E627C" d="M217.6,562.6c0-0.1,0.2-0.1,0.2,0s0.2,5.3,0.2,5.3s0.1,0.1,0.1,0s0.4-5.2,0.4-5.3c0.1-0.1,0.1-0.1,0.2,0
		c0,0.1,0.2,5.3,0.2,5.3s0,0.1,0.1,0s0.4-5.2,0.4-5.3s0.2-0.1,0.2,0c0,0.2,0.2,5.3,0.2,5.3s0.1,0.1,0.1,0s0.4-5.3,0.4-5.3
		c0.1-0.1,0.1,0,0.1,0s0.2,5.9,0.1,6.5s-1,1.2-1,1.4c-0.4,0.9,0.2,11.8,0.4,14.2c0.1,1.9-2.2,1.5-2,0.1c0.3-2.3,0.9-14.2,0.9-14.2
		s-1-1-1.1-1.6C217.2,568.7,217.6,562.7,217.6,562.6z"/>
	<path fill="#D9F7FC" d="M370.2,586.1c0,0.1-0.2,0.1-0.2,0s-0.2-5.3-0.2-5.3s-0.1-0.1-0.1,0s-0.4,5.2-0.4,5.3s-0.1,0.1-0.2,0
		c0-0.1-0.2-5.3-0.2-5.3s0-0.1-0.1,0s-0.4,5.2-0.4,5.3s-0.2,0.1-0.2,0c0-0.2-0.2-5.3-0.2-5.3s-0.1-0.1-0.1,0s-0.4,5.3-0.4,5.3
		c-0.1,0.1-0.1,0-0.1,0s-0.2-5.9-0.1-6.5s1-1.2,1-1.4c0.4-0.9-0.2-11.8-0.4-14.2c-0.1-1.9,2.2-1.5,2-0.1c-0.3,2.3-0.9,14.2-0.9,14.2
		s1,1,1.1,1.6C370.6,580,370.2,586,370.2,586.1z"/>
	<path fill="#DFE5E5" d="M256.2,407.6c0.2,0.1,0.1,0.1,0.2,0.2c0.1,0.1,0.2,0.3,0.2,0.5c0.4,0.8-0.2,11.8-0.3,13.4
		c-0.1,1.3,2,1.3,1.9,0.1c-0.2-2.2-1.2-12.5-0.8-13.4c0.1-0.4,0-0.5,0.5-0.8c0.9-0.9,2.2-7.2-1-7.2
		C253.6,400.4,255.6,407.4,256.2,407.6z"/>
	<path fill="#DFE5E5" d="M366.2,596.5c0.2,0.1,0.1,0.1,0.2,0.2s0.2,0.3,0.2,0.5c0.4,0.8-0.2,11.8-0.3,13.4c-0.1,1.3,2,1.3,1.9,0.1
		c-0.2-2.2-1.2-12.5-0.8-13.4c0.1-0.4,0-0.5,0.5-0.8c0.9-0.9,2.2-7.2-1-7.2C363.7,589.2,365.6,596.2,366.2,596.5z"/>
	<path fill="#5CB9D6" d="M265.5,537.7c0.1,0.1,0.1,0.1,0.1,0.1s0.1,0.1,0.1,0.2c0.2,0.5-0.1,6.3-0.2,7.1c0,0.7,1,0.7,1,0.1
		c-0.1-1.2-0.7-6.6-0.4-7.1c0.1-0.2,0-0.2,0.3-0.5c0.5-0.5,1.2-3.8-0.5-3.8C264.1,533.8,265.1,537.5,265.5,537.7z"/>
	<path fill="#1C3A4D" d="M378.1,602.3c0-0.1,0.2-0.1,0.2,0s0.2,6.8,0.2,6.8s0.1,0.1,0.1,0s0.5-6.8,0.5-6.8s0.2-0.1,0.2,0
		s0.2,6.8,0.2,6.8s0.1,0.1,0.1,0c0.1-0.1,0.5-6.7,0.5-6.8s0.2-0.1,0.2,0c0,0.2,0.2,6.8,0.2,6.8s0.1,0.1,0.1,0
		c0.1-0.1,0.5-6.8,0.5-6.8c0.1-0.1,0.2,0,0.2,0s0.2,7.6,0.1,8.4c-0.1,0.8-1.3,1.6-1.3,1.8c-0.5,1.2,0.2,15.3,0.4,18.3
		c0.2,2.4-2.8,1.9-2.6,0.2c0.4-3,1.1-18.4,1.1-18.4s-1.3-1.3-1.4-2.1C377.5,610.1,378.1,602.4,378.1,602.3z"/>
	<path fill="#2E627C" d="M128.2,564.6c0.2,0.2,0.2,0.2,0.2,0.3c0.1,0.2,0.2,0.4,0.4,0.7c0.5,1.2-0.3,16.4-0.4,18.6
		c-0.1,1.8,2.7,1.8,2.6,0.2c-0.4-3.1-1.7-17.3-1.1-18.5c0.2-0.5,0-0.7,0.7-1.2c1.3-1.3,3.1-10-1.4-10
		C124.6,554.6,127.3,564.3,128.2,564.6z"/>
	<path fill="#DFE5E5" d="M280.9,545.5c0.3,0.3,0.2,0.2,0.4,0.4c0.2,0.2,0.3,0.5,0.4,0.8c0.7,1.6-0.4,21.6-0.6,24.5
		c-0.1,2.4,3.6,2.3,3.5,0.2c-0.4-4.1-2.2-22.9-1.6-24.4c0.2-0.7,0-0.9,1-1.6c1.6-1.7,4.1-13.2-1.9-13.2
		C276.2,532.3,279.8,545,280.9,545.5z"/>
	<path fill="#1C3A4D" d="M291.8,586.1c0.3,0.3,0.2,0.2,0.4,0.4c0.2,0.2,0.3,0.5,0.4,0.8c0.7,1.6-0.4,21.6-0.6,24.5
		c-0.1,2.4,3.6,2.3,3.5,0.2c-0.4-4.1-2.2-22.9-1.6-24.4c0.2-0.7,0-0.9,1-1.6c1.6-1.7,4.1-13.2-1.9-13.2
		C287.1,572.9,290.6,585.6,291.8,586.1z"/>
	<path fill="#045080" d="M349.3,568.5c-0.1-0.7-0.7-7.7-0.8-13.6c0.3-5.9-0.2-12.4-0.2-13.5c0-0.5-0.1-0.8-0.4-0.8l-0.1-0.1l0,0
		c-0.3-0.2-0.8,0-1.4,1c-1.3,2.3-1.6,9.5,0.2,13.2c0,0.1,0.1,0.1,0.1,0.2c0.4,1.7,0.1,12,0,13.6
		C346.6,570.1,349.4,570.2,349.3,568.5z"/>
	<path fill="#3F8099" d="M273.5,600c-0.2-1.1-1.1-13.4-1.4-23.4c0.5-10.2-0.4-21.4-0.2-23.2c0.1-0.8-0.2-1.4-0.7-1.5
		c-0.1-0.1-0.1-0.1-0.1-0.1l0,0c-0.5-0.4-1.5,0.1-2.3,1.6c-2.2,4.1-2.7,16.5,0.2,22.8c0.1,0.1,0.1,0.2,0.1,0.4
		c0.7,3,0.2,20.6,0,23.4C268.7,602.7,273.6,602.8,273.5,600z"/>
	<path fill="#5CB9D6" d="M259.6,588.7c0,0.1-0.2,0.1-0.2,0s-0.2-6.5-0.2-6.5s-0.1-0.1-0.1,0c-0.1,0.1-0.5,6.4-0.5,6.5
		s-0.2,0.1-0.2,0s-0.2-6.5-0.2-6.5s0-0.1-0.1,0s-0.5,6.4-0.5,6.5s-0.2,0.1-0.2,0c0-0.2-0.2-6.5-0.2-6.5s-0.1-0.1-0.1,0
		c-0.1,0.1-0.5,6.5-0.5,6.5c-0.1,0.1-0.2,0-0.2,0s-0.2-7.3-0.1-8c0.1-0.8,1.2-1.5,1.3-1.7c0.5-1.1-0.2-14.5-0.4-17.5
		c-0.2-2.3,2.7-1.9,2.5-0.1c-0.4,2.9-1.1,17.5-1.1,17.5s1.2,1.3,1.3,2C260.1,581.2,259.6,588.6,259.6,588.7z"/>
	<path fill="#5CB9D6" d="M276.8,402.9c0.1,0.1,0.1,0.1,0.1,0.1c0.1,0.1,0.1,0.2,0.2,0.3c0.2,0.5-0.1,7.7-0.2,8.7
		c0,0.8,1.3,0.8,1.3,0.1c-0.2-1.4-0.8-8.2-0.5-8.7c0.1-0.2,0-0.3,0.4-0.5c0.6-0.6,1.4-4.7-0.7-4.7
		C275.1,398.2,276.4,402.8,276.8,402.9z"/>
	<path fill="#D9F7FC" d="M268.3,382.7c0-0.2,0.2-0.1,0.2,0s0.2,8.4,0.2,8.4s0.1,0.1,0.1,0c0.1-0.1,0.6-8.3,0.6-8.4s0.2-0.2,0.2,0
		c0,0.1,0.2,8.4,0.2,8.4s0.1,0.1,0.1,0c0.1-0.1,0.6-8.3,0.6-8.3c0-0.1,0.2-0.1,0.2,0c0,0.3,0.3,8.4,0.3,8.4s0.1,0.1,0.1,0
		c0.1-0.1,0.6-8.3,0.6-8.4c0.1-0.2,0.2,0,0.2,0s0.2,9.4,0.1,10.3c-0.2,1-1.5,1.9-1.7,2.2c-0.7,1.4,0.2,18.7,0.5,22.5
		c0.2,2.9-3.5,2.4-3.2,0.2c0.5-3.7,1.4-22.6,1.4-22.6s-1.6-1.6-1.7-2.6C267.7,392.3,268.3,382.8,268.3,382.7z"/>
	<path fill="#DFE5E5" d="M171.7,578.1c0.2,0.2,0.1,0.1,0.2,0.2c0.1,0.1,0.2,0.3,0.3,0.5c0.4,1-0.2,13.3-0.4,15.1
		c-0.1,1.5,2.2,1.4,2.2,0.1c-0.3-2.5-1.3-14.1-1-15.1c0.2-0.4,0-0.5,0.6-1c1-1,2.5-8.2-1.1-8.1C168.8,570,171,577.9,171.7,578.1z"/>
	<path fill="#DFE5E5" d="M322.1,562.8c0.2,0.2,0.2,0.2,0.3,0.3c0.1,0.2,0.2,0.4,0.4,0.7c0.6,1.3-0.3,17.6-0.5,19.9
		c-0.1,2,2.9,1.9,2.8,0.2c-0.4-3.3-1.8-18.6-1.3-19.9c0.2-0.6,0-0.7,0.8-1.3c1.3-1.4,3.3-10.8-1.6-10.7
		C318.3,552.1,321.2,562.4,322.1,562.8z"/>
	<path fill="#5CB9D6" d="M375.6,538.4c0-0.1,0.1-0.1,0.1,0s0.1,3.6,0.1,3.6s0,0,0.1,0s0.2-3.5,0.2-3.6s0.1-0.1,0.1,0
		s0.1,3.6,0.1,3.6s0,0.1,0.1,0c0-0.1,0.2-3.5,0.2-3.6s0.1-0.1,0.1,0s0.1,3.6,0.1,3.6s0,0.1,0.1,0c0-0.1,0.2-3.6,0.2-3.6
		c0.1-0.1,0.1,0,0.1,0s0.1,4,0,4.4s-0.7,0.8-0.7,1c-0.3,0.6,0.1,8,0.2,9.7c0.1,1.3-1.5,1-1.4,0.1c0.2-1.6,0.6-9.7,0.6-9.7
		s-0.7-0.7-0.7-1.1C375.3,542.5,375.6,538.4,375.6,538.4z"/>
	<path fill="#D9F7FC" d="M490.6,492.2c0-0.2,0.2-0.1,0.2,0s0.2,8.3,0.2,8.3s0.1,0.1,0.1,0s0.6-8.2,0.6-8.3s0.2-0.2,0.2,0
		c0,0.1,0.2,8.3,0.2,8.3s0.1,0.1,0.1,0s0.6-8.2,0.6-8.3s0.2-0.1,0.2,0c0,0.3,0.3,8.3,0.3,8.3s0.1,0.1,0.1,0c0.1-0.1,0.6-8.3,0.6-8.3
		c0.1-0.2,0.2,0,0.2,0s0.2,9.2,0.1,10.2c-0.2,1-1.5,1.9-1.6,2.2c-0.7,1.4,0.2,18.6,0.5,22.3c0.2,2.9-3.4,2.3-3.2,0.2
		c0.5-3.7,1.4-22.3,1.4-22.3s-1.5-1.6-1.7-2.5C490,501.7,490.6,492.3,490.6,492.2z"/>
	<path fill="#2E6080" d="M335.2,581.4c-0.1-0.5-0.5-6.3-0.7-11.1c0.2-4.8-0.2-10.1-0.1-11c0-0.4-0.1-0.7-0.3-0.7l-0.1-0.1l0,0
		c-0.2-0.2-0.7,0-1.1,0.8c-1,1.9-1.3,7.7,0.1,10.8c0,0.1,0.1,0.1,0.1,0.2c0.4,1.4,0.1,9.7,0,11.1C333,582.7,335.3,582.8,335.2,581.4
		z"/>
	<path fill="#1C3A4D" d="M329.5,595.6c0.2,0.2,0.2,0.2,0.3,0.3c0.1,0.2,0.2,0.4,0.4,0.7c0.6,1.3-0.3,17.6-0.5,19.9
		c-0.1,2,2.9,1.9,2.8,0.2c-0.4-3.3-1.8-18.6-1.3-19.9c0.2-0.6,0-0.7,0.8-1.3c1.3-1.4,3.3-10.8-1.6-10.7
		C325.7,584.9,328.6,595.2,329.5,595.6z"/>
	<path fill="#045080" d="M181.2,602.2c-0.1-0.5-0.5-6.3-0.7-11.1c0.2-4.8-0.2-10.1-0.1-11c0-0.4-0.1-0.7-0.3-0.7l-0.1-0.1l0,0
		c-0.2-0.2-0.7,0-1.1,0.8c-1,1.9-1.3,7.7,0.1,10.8c0,0.1,0.1,0.1,0.1,0.2c0.4,1.4,0.1,9.7,0,11.1C179,603.5,181.3,603.5,181.2,602.2
		z"/>
	<path fill="#3F8099" d="M164.3,604.3c-0.1-0.9-0.9-10.6-1.1-18.6c0.4-8.1-0.3-17.1-0.2-18.5c0-0.7-0.2-1.1-0.5-1.2
		c-0.1-0.1-0.1-0.1-0.1-0.1l0,0c-0.4-0.3-1.2,0.1-1.9,1.3c-1.7,3.2-2.2,13.1,0.2,18.1c0.1,0.1,0.1,0.2,0.1,0.3
		c0.6,2.4,0.2,16.4,0,18.6C160.5,606.5,164.4,606.5,164.3,604.3z"/>
	<path fill="#3F8099" d="M316,607.1c-0.1-1-0.9-10.9-1.2-19.1c0.4-8.3-0.3-17.5-0.2-18.9c0-0.7-0.2-1.1-0.5-1.2
		c-0.1-0.1-0.1-0.1-0.1-0.1l0,0c-0.4-0.3-1.2,0.1-1.9,1.3c-1.7,3.3-2.2,13.4,0.2,18.5c0.1,0.1,0.1,0.2,0.1,0.3
		c0.6,2.4,0.2,16.8,0,19C312.2,609.3,316.2,609.4,316,607.1z"/>
	<path fill="#5CB9D6" d="M302.7,574.6c0-0.1,0.2-0.1,0.2,0s0.2,5.3,0.2,5.3s0.1,0.1,0.1,0s0.4-5.2,0.4-5.3c0.1-0.1,0.1-0.1,0.2,0
		c0,0.1,0.2,5.3,0.2,5.3s0,0.1,0.1,0s0.4-5.2,0.4-5.3s0.2-0.1,0.2,0c0,0.2,0.2,5.3,0.2,5.3s0.1,0.1,0.1,0s0.4-5.3,0.4-5.3
		c0.1-0.1,0.1,0,0.1,0s0.2,5.9,0.1,6.5s-1,1.2-1,1.4c-0.4,0.9,0.2,11.8,0.4,14.2c0.1,1.9-2.2,1.5-2,0.1c0.3-2.3,0.9-14.2,0.9-14.2
		s-1-1-1.1-1.6C302.3,580.7,302.7,574.7,302.7,574.6z"/>
	<path fill="#D9F7FC" d="M153.3,592.5c0,0.1-0.2,0.1-0.2,0s-0.2-5.3-0.2-5.3s-0.1-0.1-0.1,0s-0.4,5.2-0.4,5.3
		c-0.1,0.1-0.1,0.1-0.2,0c0-0.1-0.2-5.3-0.2-5.3s0-0.1-0.1,0c-0.1,0.1-0.4,5.2-0.4,5.3s-0.2,0.1-0.2,0c0-0.2-0.2-5.3-0.2-5.3
		s-0.1-0.1-0.1,0s-0.4,5.3-0.4,5.3c-0.1,0.1-0.1,0-0.1,0s-0.2-5.9-0.1-6.5c0.1-0.6,1-1.2,1-1.4c0.4-0.9-0.2-11.8-0.4-14.2
		c-0.1-1.9,2.2-1.5,2-0.1c-0.3,2.3-0.9,14.2-0.9,14.2s1,1,1.1,1.6C153.7,586.4,153.3,592.4,153.3,592.5z"/>
	<path fill="#DFE5E5" d="M303.3,554.5c0.2,0.1,0.1,0.1,0.2,0.2c0.1,0.1,0.2,0.3,0.2,0.5c0.4,0.8-0.2,11.8-0.3,13.4
		c-0.1,1.3,2,1.3,1.9,0.1c-0.2-2.2-1.2-12.5-0.8-13.4c0.1-0.4,0-0.5,0.5-0.8c0.9-0.9,2.2-7.2-1-7.2
		C300.7,547.3,302.7,554.3,303.3,554.5z"/>
	<path fill="#075280" d="M151.2,602.8c0.2,0.1,0.1,0.1,0.2,0.2c0.1,0.1,0.2,0.3,0.2,0.5c0.4,0.8-0.2,11.8-0.3,13.4
		c-0.1,1.3,2,1.3,1.9,0.1c-0.2-2.2-1.2-12.5-0.8-13.4c0.1-0.4,0-0.5,0.5-0.8c0.9-0.9,2.2-7.2-1-7.2
		C148.6,595.6,150.6,602.5,151.2,602.8z"/>
	<path fill="#5CB9D6" d="M169.1,493.5c0.1,0.1,0.1,0.1,0.1,0.1c0.1,0.1,0.1,0.1,0.1,0.2c0.2,0.5-0.1,6.3-0.2,7.1c0,0.7,1,0.7,1,0.1
		c-0.1-1.2-0.7-6.6-0.4-7.1c0.1-0.2,0-0.2,0.3-0.5c0.5-0.5,1.2-3.8-0.5-3.8C167.8,489.6,168.8,493.3,169.1,493.5z"/>
	<path fill="#5CB9D6" d="M341.8,413.5c0.1,0.1,0.1,0.1,0.1,0.1c0.1,0.1,0.1,0.1,0.1,0.2c0.2,0.5-0.1,6.3-0.2,7.1c0,0.7,1,0.7,1,0.1
		c-0.1-1.2-0.7-6.6-0.4-7.1c0.1-0.2,0-0.2,0.3-0.5c0.5-0.5,1.2-3.8-0.5-3.8C340.5,409.8,341.5,413.5,341.8,413.5z"/>
	<path fill="#3F8099" d="M206.8,627.6c-0.2-1.1-1.1-13.1-1.4-22.9c0.5-10-0.4-21-0.2-22.7c0.1-0.8-0.2-1.3-0.7-1.4
		c-0.1-0.1-0.1-0.1-0.1-0.1l0,0c-0.5-0.4-1.4,0.1-2.3,1.6c-2.1,4-2.6,16.1,0.2,22.2c0.1,0.1,0.1,0.2,0.1,0.4
		c0.7,2.9,0.2,20.1,0,22.9C202.2,630.2,207,630.3,206.8,627.6z"/>
	<path fill="#3F8099" d="M358.6,612c-0.2-1.1-1.1-13.4-1.4-23.4c0.5-10.2-0.4-21.4-0.2-23.2c0.1-0.8-0.2-1.4-0.7-1.5
		c-0.1-0.1-0.1-0.1-0.1-0.1l0,0c-0.5-0.4-1.5,0.1-2.3,1.6c-2.2,4.1-2.7,16.5,0.2,22.8c0.1,0.1,0.1,0.2,0.1,0.4
		c0.7,3,0.2,20.6,0,23.4C353.8,614.7,358.7,614.7,358.6,612z"/>
	<path fill="#5CB9D6" d="M344.6,600.6c0,0.1-0.2,0.1-0.2,0s-0.2-6.5-0.2-6.5s-0.1-0.1-0.1,0s-0.5,6.4-0.5,6.5s-0.2,0.1-0.2,0
		s-0.2-6.5-0.2-6.5s0-0.1-0.1,0s-0.5,6.4-0.5,6.5s-0.2,0.1-0.2,0c0-0.2-0.2-6.5-0.2-6.5s-0.1-0.1-0.1,0s-0.5,6.5-0.5,6.5
		c-0.1,0.1-0.2,0-0.2,0s-0.2-7.3-0.1-8c0.1-0.8,1.2-1.5,1.3-1.7c0.5-1.1-0.2-14.5-0.4-17.5c-0.2-2.3,2.7-1.9,2.5-0.1
		c-0.4,2.9-1.1,17.5-1.1,17.5s1.2,1.3,1.3,2C345.2,593.2,344.7,600.5,344.6,600.6z"/>
	<path fill="#1C3A4D" d="M193.3,613c0,0.1-0.2,0.1-0.2,0s-0.2-6.5-0.2-6.5s-0.1-0.1-0.1,0c-0.1,0.1-0.5,6.4-0.5,6.5s-0.2,0.1-0.2,0
		s-0.2-6.5-0.2-6.5s0-0.1-0.1,0s-0.5,6.4-0.5,6.5s-0.2,0.1-0.2,0c0-0.2-0.2-6.5-0.2-6.5s-0.1-0.1-0.1,0c-0.1,0.1-0.5,6.5-0.5,6.5
		c-0.1,0.1-0.2,0-0.2,0s-0.2-7.3-0.1-8c0.1-0.7,1.2-1.5,1.3-1.7c0.5-1.1-0.2-14.5-0.4-17.5c-0.2-2.3,2.7-1.9,2.5-0.1
		c-0.4,2.9-1.1,17.5-1.1,17.5s1.2,1.3,1.3,2C193.8,605.6,193.3,612.9,193.3,613z"/>
	<path fill="#D9F7FC" d="M353.3,394.6c0-0.2,0.2-0.1,0.2,0s0.2,8.4,0.2,8.4s0.1,0.1,0.1,0c0.1-0.1,0.6-8.3,0.6-8.4s0.2-0.2,0.2,0
		c0,0.1,0.2,8.4,0.2,8.4s0.1,0.1,0.1,0c0.1-0.1,0.6-8.3,0.6-8.3c0-0.1,0.2-0.1,0.2,0c0,0.3,0.3,8.4,0.3,8.4s0.1,0.1,0.1,0
		s0.6-8.3,0.6-8.4c0.1-0.2,0.2,0,0.2,0s0.2,9.4,0.1,10.3c-0.2,1-1.5,1.9-1.7,2.2c-0.7,1.4,0.2,18.7,0.5,22.5
		c0.2,2.9-3.5,2.4-3.2,0.2c0.5-3.7,1.4-22.6,1.4-22.6s-1.6-1.6-1.7-2.6C352.7,404.2,353.3,394.7,353.3,394.6z"/>
	<path fill="#5CB9D6" d="M185.3,583.6c0-0.1,0.1-0.1,0.1,0s0.1,3.6,0.1,3.6s0,0,0.1,0c0-0.1,0.2-3.5,0.2-3.6s0.1-0.1,0.1,0
		s0.1,3.6,0.1,3.6s0,0.1,0.1,0c0-0.1,0.2-3.5,0.2-3.6s0.1-0.1,0.1,0s0.1,3.6,0.1,3.6s0,0.1,0.1,0c0.1-0.1,0.2-3.6,0.2-3.6
		c0.1-0.1,0.1,0,0.1,0s0.1,4,0,4.4c-0.1,0.4-0.7,0.8-0.7,1c-0.3,0.6,0.1,8,0.2,9.7c0.1,1.3-1.5,1-1.4,0.1c0.2-1.6,0.6-9.7,0.6-9.7
		s-0.7-0.7-0.7-1.1C185,587.7,185.3,583.7,185.3,583.6z"/>
	<path fill="#D9F7FC" d="M163.5,425.6c0,0.1-0.2,0.1-0.2,0s-0.2-6.8-0.2-6.8s-0.1-0.1-0.1,0c-0.1,0.1-0.5,6.8-0.5,6.8
		c0,0.1-0.2,0.1-0.2,0s-0.2-6.8-0.2-6.8s-0.1-0.1-0.1,0s-0.5,6.7-0.5,6.8c0,0.1-0.2,0.1-0.2,0c0-0.2-0.2-6.8-0.2-6.8s-0.1-0.1-0.1,0
		c-0.1,0.1-0.5,6.8-0.5,6.8c-0.1,0.1-0.2,0-0.2,0s-0.2-7.6-0.1-8.4c0.1-0.8,1.3-1.6,1.3-1.8c0.5-1.2-0.2-15.3-0.4-18.3
		c-0.2-2.4,2.8-1.9,2.6-0.2c-0.4,3-1.1,18.4-1.1,18.4s1.3,1.3,1.4,2.1C163.9,417.8,163.5,425.5,163.5,425.6z"/>
	<path fill="#D9F7FC" d="M422.2,521.9c0,0.1-0.2,0.1-0.2,0s-0.2-6.8-0.2-6.8s-0.1-0.1-0.1,0c-0.1,0.1-0.5,6.8-0.5,6.8
		c0,0.1-0.2,0.1-0.2,0s-0.2-6.8-0.2-6.8s-0.1-0.1-0.1,0s-0.5,6.7-0.5,6.8s-0.2,0.1-0.2,0c0-0.2-0.2-6.8-0.2-6.8s-0.1-0.1-0.1,0
		c-0.1,0.1-0.5,6.8-0.5,6.8c-0.1,0.1-0.2,0-0.2,0s-0.2-7.6-0.1-8.4s1.3-1.6,1.3-1.8c0.5-1.2-0.2-15.3-0.4-18.3
		c-0.2-2.4,2.8-1.9,2.6-0.2c-0.4,3-1.1,18.4-1.1,18.4s1.3,1.3,1.4,2.1C422.7,514.1,422.2,521.8,422.2,521.9z"/>
	<path fill="#E4F5F9" d="M427.1,486.3c-0.1-0.5-0.5-6.3-0.7-11.1c0.2-4.8-0.2-10.1-0.1-11c0-0.4-0.1-0.7-0.3-0.7l-0.1-0.1l0,0
		c-0.2-0.2-0.7,0-1.1,0.8c-1,1.9-1.3,7.7,0.1,10.8c0,0.1,0.1,0.1,0.1,0.2c0.4,1.4,0.1,9.7,0,11.1
		C424.9,487.5,427.2,487.5,427.1,486.3z"/>
	<path fill="#5CB9D6" d="M412.2,469.4c0-0.1,0.2-0.1,0.2,0s0.2,5.3,0.2,5.3s0.1,0.1,0.1,0s0.4-5.2,0.4-5.3c0.1-0.1,0.1-0.1,0.2,0
		c0,0.1,0.2,5.3,0.2,5.3s0,0.1,0.1,0s0.4-5.2,0.4-5.3c0-0.1,0.2-0.1,0.2,0c0,0.2,0.2,5.3,0.2,5.3s0.1,0.1,0.1,0s0.4-5.3,0.4-5.3
		c0.1-0.1,0.1,0,0.1,0s0.2,5.9,0.1,6.5s-1,1.2-1,1.4c-0.4,0.9,0.2,11.8,0.4,14.2c0.1,1.9-2.2,1.5-2,0.1c0.3-2.3,0.9-14.2,0.9-14.2
		s-1-1-1.1-1.6C411.8,475.4,412.2,469.4,412.2,469.4z"/>
	<path fill="#CCDADD" d="M416,446.4c0.2,0.1,0.1,0.1,0.2,0.2s0.2,0.3,0.2,0.5c0.4,0.8-0.2,11.8-0.3,13.4c-0.1,1.3,2,1.3,1.9,0.1
		c-0.2-2.2-1.2-12.5-0.8-13.4c0.1-0.4,0-0.5,0.5-0.8c0.9-0.9,2.2-7.2-1-7.2C413.4,439.2,415.4,446.2,416,446.4z"/>
	<path fill="#D9F7FC" d="M427.6,371c0-0.1,0.2-0.1,0.2,0s0.2,6.8,0.2,6.8s0.1,0.1,0.1,0s0.5-6.8,0.5-6.8c0-0.1,0.2-0.1,0.2,0
		s0.2,6.8,0.2,6.8s0.1,0.1,0.1,0c0.1-0.1,0.5-6.7,0.5-6.8c0-0.1,0.2-0.1,0.2,0c0,0.2,0.2,6.8,0.2,6.8s0.1,0.1,0.1,0
		c0.1-0.1,0.5-6.8,0.5-6.8c0.1-0.1,0.2,0,0.2,0s0.2,7.6,0.1,8.4s-1.3,1.6-1.3,1.8c-0.5,1.2,0.2,15.3,0.4,18.3
		c0.2,2.4-2.8,1.9-2.6,0.2c0.4-3,1.1-18.4,1.1-18.4s-1.3-1.3-1.4-2.1C427.1,378.8,427.6,371.1,427.6,371z"/>
	<path fill="#D9F7FC" d="M130.1,435.3c0-0.1,0.2-0.1,0.2,0s0.2,6.8,0.2,6.8s0.1,0.1,0.1,0c0.1-0.1,0.5-6.8,0.5-6.8s0.2-0.1,0.2,0
		s0.2,6.8,0.2,6.8s0.1,0.1,0.1,0s0.5-6.7,0.5-6.8c0-0.1,0.2-0.1,0.2,0c0,0.2,0.2,6.8,0.2,6.8s0.1,0.1,0.1,0c0.1-0.1,0.5-6.8,0.5-6.8
		c0.1-0.1,0.2,0,0.2,0s0.2,7.6,0.1,8.4c-0.1,0.8-1.3,1.6-1.3,1.8c-0.5,1.2,0.2,15.3,0.4,18.3c0.2,2.4-2.8,1.9-2.6,0.2
		c0.4-3,1.1-18.4,1.1-18.4s-1.3-1.3-1.4-2.1C129.6,443.1,130.1,435.4,130.1,435.3z"/>
	<path fill="#E4F5F9" d="M516.7,449.1c-0.1-0.7-0.7-7.7-0.8-13.6c0.3-5.9-0.2-12.4-0.2-13.5c0-0.5-0.1-0.8-0.4-0.8l-0.1-0.1l0,0
		c-0.3-0.2-0.8,0-1.4,1c-1.3,2.3-1.6,9.5,0.2,13.2c0,0.1,0.1,0.1,0.1,0.2c0.4,1.7,0.1,12,0,13.6C514,450.7,516.9,450.7,516.7,449.1z
		"/>
	<path fill="#E4F5F9" d="M531.4,477.9c-0.1-0.5-0.5-6.3-0.7-11.1c0.2-4.8-0.2-10.1-0.1-11c0-0.4-0.1-0.7-0.3-0.7l-0.1-0.1l0,0
		c-0.2-0.2-0.7,0-1.1,0.8c-1,1.9-1.3,7.7,0.1,10.8c0,0.1,0.1,0.1,0.1,0.2c0.4,1.4,0.1,9.7,0,11.1
		C529.2,479.1,531.5,479.2,531.4,477.9z"/>
	<path fill="#D9F7FC" d="M264.5,431.8c0-0.1,0.2-0.1,0.2,0s0.2,6.8,0.2,6.8s0.1,0.1,0.1,0c0.1-0.1,0.5-6.8,0.5-6.8s0.2-0.1,0.2,0
		s0.2,6.8,0.2,6.8s0.1,0.1,0.1,0c0.1-0.1,0.5-6.7,0.5-6.8c0-0.1,0.2-0.1,0.2,0c0,0.2,0.2,6.8,0.2,6.8s0.1,0.1,0.1,0
		c0.1-0.1,0.5-6.8,0.5-6.8c0.1-0.1,0.2,0,0.2,0s0.2,7.6,0.1,8.4c-0.1,0.8-1.3,1.6-1.3,1.8c-0.5,1.2,0.2,15.3,0.4,18.3
		c0.2,2.4-2.8,1.9-2.6,0.2c0.4-3,1.1-18.4,1.1-18.4s-1.3-1.3-1.4-2.1C264,439.6,264.5,431.8,264.5,431.8z"/>
	<path fill="#DFE5E5" d="M167,467.1c0.2,0.2,0.2,0.2,0.2,0.2c0.1,0.2,0.2,0.4,0.3,0.5c0.5,1.1-0.2,14.5-0.4,16.5
		c-0.1,1.6,2.4,1.6,2.3,0.1c-0.3-2.8-1.4-15.4-1-16.5c0.2-0.5,0-0.6,0.7-1c1.1-1.1,2.8-8.9-1.3-8.8
		C163.8,458.3,166.2,466.9,167,467.1z"/>
	<path fill="#D9F7FC" d="M535.7,414.6c0-0.2,0.2-0.1,0.2,0s0.2,8.4,0.2,8.4s0.1,0.1,0.1,0c0.1-0.1,0.6-8.3,0.6-8.4s0.2-0.2,0.2,0
		c0,0.1,0.2,8.4,0.2,8.4s0.1,0.1,0.1,0c0.1-0.1,0.6-8.3,0.6-8.3c0-0.1,0.2-0.1,0.2,0c0,0.3,0.3,8.4,0.3,8.4s0.1,0.1,0.1,0
		c0.1-0.1,0.6-8.3,0.6-8.4c0.1-0.2,0.2,0,0.2,0s0.2,9.4,0.1,10.3c-0.2,1-1.5,1.9-1.7,2.2c-0.7,1.4,0.2,18.7,0.5,22.5
		c0.2,2.9-3.5,2.4-3.2,0.2c0.5-3.7,1.4-22.6,1.4-22.6s-1.6-1.6-1.7-2.6C535.1,424.2,535.7,414.7,535.7,414.6z"/>
	<path fill="#5CB9D6" d="M593.3,468.9c0-0.1,0.2-0.1,0.2,0s0.2,5.3,0.2,5.3s0.1,0.1,0.1,0s0.4-5.2,0.4-5.3c0-0.1,0.1-0.1,0.2,0
		c0,0.1,0.2,5.3,0.2,5.3s0,0.1,0.1,0s0.4-5.2,0.4-5.3c0-0.1,0.2-0.1,0.2,0c0,0.2,0.2,5.3,0.2,5.3s0.1,0.1,0.1,0s0.4-5.3,0.4-5.3
		c0.1-0.1,0.1,0,0.1,0s0.2,5.9,0.1,6.5c-0.1,0.6-1,1.2-1,1.4c-0.4,0.9,0.2,11.8,0.4,14.2c0.1,1.9-2.2,1.5-2,0.1
		c0.3-2.3,0.9-14.2,0.9-14.2s-1-1-1.1-1.6C592.9,474.9,593.3,468.9,593.3,468.9z"/>
	<path fill="#D9F7FC" d="M591.4,425.8c0-0.1,0.2-0.1,0.2,0s0.2,6.8,0.2,6.8s0.1,0.1,0.1,0c0.1-0.1,0.5-6.8,0.5-6.8
		c0-0.1,0.2-0.1,0.2,0s0.2,6.8,0.2,6.8s0.1,0.1,0.1,0c0.1-0.1,0.5-6.7,0.5-6.8c0-0.1,0.2-0.1,0.2,0c0,0.2,0.2,6.8,0.2,6.8
		s0.1,0.1,0.1,0c0.1-0.1,0.5-6.8,0.5-6.8c0.1-0.1,0.2,0,0.2,0s0.2,7.6,0.1,8.4c-0.1,0.8-1.3,1.6-1.3,1.8c-0.5,1.2,0.2,15.3,0.4,18.3
		c0.2,2.4-2.8,1.9-2.6,0.2c0.4-3,1.1-18.4,1.1-18.4s-1.3-1.3-1.4-2.1C590.9,433.6,591.4,425.9,591.4,425.8z"/>
	<path fill="#DFE5E5" d="M342.2,444.2c0.2,0.2,0.2,0.2,0.2,0.2c0.1,0.2,0.2,0.4,0.3,0.5c0.5,1.1-0.2,14.5-0.4,16.5
		c-0.1,1.6,2.4,1.6,2.3,0.1c-0.3-2.8-1.4-15.4-1-16.5c0.2-0.5,0-0.6,0.7-1c1.1-1.1,2.8-8.9-1.3-8.8
		C339,435.4,341.4,443.9,342.2,444.2z"/>
	<path fill="#5CB9D6" d="M123.2,456.9c0.1,0.1,0.1,0.1,0.1,0.1c0.1,0.1,0.1,0.1,0.1,0.2c0.2,0.5-0.1,6.3-0.2,7.1c0,0.7,1,0.7,1,0.1
		c-0.1-1.2-0.7-6.6-0.4-7.1c0.1-0.2,0-0.2,0.3-0.5c0.5-0.5,1.2-3.8-0.5-3.8C121.9,453,122.9,456.8,123.2,456.9z"/>
	<path fill="#DFE5E5" d="M356.1,448.5c0.2,0.2,0.2,0.2,0.2,0.2c0.1,0.2,0.2,0.4,0.3,0.5c0.5,1-0.2,14-0.4,15.9
		c-0.1,1.6,2.3,1.5,2.3,0.1c-0.3-2.6-1.4-14.8-1-15.9c0.2-0.5,0-0.6,0.6-1c1.1-1.1,2.6-8.6-1.2-8.5C353,440,355.4,448.3,356.1,448.5
		z"/>
	<path fill="#DFE5E5" d="M480.5,470.8c0.2,0.2,0.2,0.2,0.2,0.3c0.1,0.2,0.2,0.4,0.4,0.7c0.5,1.2-0.3,16.4-0.4,18.6
		c-0.1,1.8,2.7,1.8,2.6,0.2c-0.4-3.1-1.7-17.3-1.1-18.5c0.2-0.5,0-0.7,0.7-1.2c1.3-1.3,3.1-10-1.4-10
		C476.9,460.9,479.6,470.5,480.5,470.8z"/>
	<path fill="#3F8099" d="M139.9,618.5c-0.2-1.1-1.1-13.4-1.4-23.4c0.5-10.2-0.4-21.4-0.2-23.2c0.1-0.8-0.2-1.4-0.7-1.5
		c-0.1-0.1-0.1-0.1-0.1-0.1l0,0c-0.5-0.4-1.5,0.1-2.3,1.6c-2.2,4.1-2.8,16.5,0.2,22.8c0.1,0.1,0.1,0.2,0.1,0.4
		c0.7,3,0.2,20.6,0,23.4C135.2,621.2,140.1,621.3,139.9,618.5z"/>
	<path fill="#DFE5E5" d="M156.8,492.1c0.2,0.2,0.2,0.2,0.2,0.2c0.1,0.2,0.2,0.4,0.3,0.5c0.5,1.1-0.2,14.5-0.4,16.5
		c-0.1,1.6,2.4,1.6,2.3,0.1c-0.3-2.8-1.4-15.4-1-16.5c0.2-0.5,0-0.6,0.7-1c1.1-1.1,2.8-8.9-1.3-8.8
		C153.6,483.3,156,491.8,156.8,492.1z"/>
	<path fill="#DFE5E5" d="M179.8,490.5c0.2,0.1,0.1,0.1,0.2,0.2c0.1,0.1,0.2,0.3,0.2,0.5c0.4,0.8-0.2,11.8-0.3,13.4
		c-0.1,1.3,2,1.3,1.9,0.1c-0.2-2.2-1.2-12.5-0.8-13.4c0.1-0.4,0-0.5,0.5-0.8c0.9-0.9,2.2-7.2-1-7.2
		C177.3,483.4,179.2,490.3,179.8,490.5z"/>
	<path fill="#5CB9D6" d="M494.5,477.6c0.1,0.1,0.1,0.1,0.1,0.1s0.1,0.1,0.1,0.2c0.2,0.5-0.1,6.3-0.2,7.1c0,0.7,1,0.7,1,0.1
		c-0.1-1.2-0.7-6.6-0.4-7.1c0.1-0.2,0-0.2,0.3-0.5c0.5-0.5,1.2-3.8-0.5-3.8C493.1,473.7,494.2,477.5,494.5,477.6z"/>
	<path fill="#5CB9D6" d="M479.8,503.9c0.1,0.1,0.1,0.1,0.1,0.1c0.1,0.1,0.1,0.2,0.2,0.3c0.2,0.5-0.1,7.7-0.2,8.7
		c0,0.8,1.3,0.8,1.3,0.1c-0.2-1.4-0.8-8.2-0.5-8.7c0.1-0.2,0-0.3,0.4-0.5c0.6-0.6,1.4-4.7-0.7-4.7
		C478.1,499.2,479.5,503.8,479.8,503.9z"/>
	<path fill="#5CB9D6" d="M344.9,513.3c0.1,0.1,0.1,0.1,0.1,0.1c0.1,0.1,0.1,0.1,0.1,0.2c0.2,0.5-0.1,6.3-0.2,7.1c0,0.7,1,0.7,1,0.1
		c-0.1-1.2-0.7-6.6-0.4-7.1c0.1-0.2,0-0.2,0.3-0.5c0.5-0.5,1.2-3.8-0.5-3.8C343.6,509.5,344.6,513.1,344.9,513.3z"/>
	<path fill="#DFE5E5" d="M337.2,522.6c0.2,0.2,0.2,0.2,0.2,0.2c0.1,0.2,0.2,0.4,0.3,0.5c0.5,1.1-0.2,14.5-0.4,16.5
		c-0.1,1.6,2.4,1.6,2.3,0.1c-0.3-2.8-1.4-15.4-1-16.5c0.2-0.5,0-0.6,0.7-1c1.1-1.1,2.8-8.9-1.3-8.8
		C334.1,513.8,336.5,522.3,337.2,522.6z"/>
</g>
</svg>
